/* XPM */
static char *magick[] = {
/* columns rows colors chars-per-pixel */
"12 20 8 1",
"  c Gray4",
". c #2c2c2c",
"X c Gray29",
"o c #747474",
"O c #8d8d8d",
"+ c #b7b7b7",
"@ c Gray85",
"# c #f9f9f9",
/* pixels */
"  o##O #####",
"o +##o #####",
"@.###o #####",
"@.###o #####",
"@.###O #####",
"@.#### #####",
"@.#### #####",
"@.#### #####",
"@.#### #####",
"@.@### #####",
"@.#@++ ##+@#",
"@.o    o   o",
"#. X.   X.  ",
"# X#@  O#@  ",
"@.@##  ###  ",
"@.##O  @#@ X",
"@.## O.##X.#",
"@.#XO# #X.##",
"@..O#@...###",
"# o### X####"
};
