/* XPM */
static char *magick[] = {
/* columns rows colors chars-per-pixel */
"14 22 8 1",
"  c #0c0c0c",
". c #2c2c2c",
"X c #4c4c4c",
"o c #747474",
"O c #8d8d8d",
"+ c #b4b4b4",
"@ c Gray80",
"# c None",
/* pixels */
"##############",
"#@o+##@O######",
"#+ +##o ######",
"## ###o ######",
"## ###o ######",
"## ###O ######",
"## #### ######",
"## #### ######",
"## @### ######",
"## #### ######",
"## #### @#####",
"## ##@+ ##+@##",
"## o    o   o#",
"##  X.   X.  +",
"## X#@  O#@  O",
"## @##  ###  +",
"## ##O  ##@ .#",
"## ## O.##X.##",
"## #XO# #X.###",
"##..O##...####",
"## o### .#####",
"##O####O######"
};
