/* XPM */
static char *magick[] = {
/* columns rows colors chars-per-pixel */
"10 10 6 1",
"  c #020202",
". c Gray27",
"X c #7c7c7c",
"o c Gray55",
"O c Gray79",
"+ c None",
/* pixels */
"++++++++++",
"+OXo+++oXO",
"+o  o+X  o",
"+o  .+.  o",
"++o. X .o+",
"++++X X+++",
"++o. X .o+",
"+o  .+.  o",
"+o  X+X  o",
"+OXo+++oXO"
};
