/* XPM */
static char *magick[] = {
/* columns rows colors chars-per-pixel */
"20 30 6 1",
"  c Gray5",
". c #202020",
"X c #414141",
"o c #7c7c7c",
"O c #898989",
"+ c #f8f8f8",
/* pixels */
"  + +++++++++++++ + ",
"  +.+++++++++++++ + ",
"  + +++++++++++++ + ",
"  + +++++++++++++ + ",
"  + +++++++++++++ + ",
"  + +++++++++++++ + ",
"  + +++++++++++++ + ",
"  + +++++++++++++ + ",
"  +.+++++++++++++ + ",
"  +.+++++++++++++ + ",
"  + +++++++++++++ + ",
"  + .OooOOOoOOOO. + ",
"  +               + ",
"  +               + ",
"  + ooooooooooooX + ",
"  + +++++++++++++ + ",
"  + Xoooooooooooo + ",
"  +               + ",
"  +               + ",
"  + .ooooooOoooo. + ",
"  + +++++++++++++ + ",
"  +.+++++++++++++ + ",
"  + +++++++++++++ + ",
"  +.+++++++++++++ + ",
"  + +++++++++++++ + ",
"  + +++++++++++++ + ",
"  + +++++++++++++ + ",
"  + +++++++++++++ + ",
"  + +++++++++++++ + ",
"  + +++++++++++++ + "
};
