/* XPM */
static char *magick[] = {
/* columns rows colors chars-per-pixel */
"17 20 8 1",
"  c #040404",
". c #313131",
"X c #505050",
"o c Gray45",
"O c #8d8d8d",
"+ c #b1b1b1",
"@ c #d0d0d0",
"# c Gray99",
/* pixels */
"#####@   o#######",
"####o.oOX .O@####",
"###..####+  .##+o",
"##o ######O  o#  ",
"#@   O#####   #..",
"#O    @####X  +##",
"#O    O####O  o##",
"#@    O####o  O##",
"##o  o#####O  o@@",
"###++######o  O. ",
"###########   #. ",
"##########O  o#@@",
"#########@. .@###",
"#########X  +####",
"########o  O#####",
"#######o  O######",
"#####@X .@#######",
"####O  +#########",
"##+. o@##########",
"@oXO#############"
};
