/* XPM */
static char *magick[] = {
/* columns rows colors chars-per-pixel */
"8 12 2 1",
"  c #060606",
". c Gray96",
/* pixels */
"   ...  ",
"   ...  ",
"   ...  ",
"   ...  ",
"   ...  ",
"   ...  ",
"   ...  ",
"   ...  ",
"   ...  ",
"   ...  ",
"   ...  ",
"   ...  "
};
