/* XPM */
static char *magick[] = {
/* columns rows colors chars-per-pixel */
"23 27 8 1",
"  c Gray1",
". c Gray18",
"X c #4b4b4b",
"o c #717171",
"O c Gray56",
"+ c #b1b1b1",
"@ c Gray84",
"# c None",
/* pixels */
"#######################",
"#######@oooo@##########",
"#####+. Xoo. .@########",
"####+  @####o  O#######",
"###+  @######X  O##X X#",
"###X O#######+  .##.  @",
"##@   X@######.  o#.  @",
"##o     @#####o  .##O@#",
"##o     o#####+   @####",
"##o     .#####+   @####",
"##+     .#####+   @####",
"###X    +#####+   @#O@#",
"####o .O######o  o#.  @",
"##############.  O#.  @",
"#############+   @#X X#",
"#############o  X######",
"############@. .#######",
"############.  O#######",
"###########o  O########",
"##########O  O#########",
"#########O .+##########",
"########o .@###########",
"######+. o#############",
"####@o X@##############",
"###+..@################",
"##..+##################",
"#@+####################"
};
