/* XPM */
static char *magick[] = {
/* columns rows colors chars-per-pixel */
"9 34 8 1",
"  c Gray2",
". c Gray19",
"X c #4b4b4b",
"o c Gray45",
"O c Gray54",
"+ c Gray71",
"@ c #d2d2d2",
"# c #fdfdfd",
/* pixels */
"########o",
"########o",
"########o",
"########o",
"########.",
"#######. ",
"####+o Xo",
"#@.   o#o",
"#O   +##o",
"#O X####.",
"#O.####X ",
"#O@###X .",
"####+  O.",
"##+X  +#.",
"#O  X##+X",
"#O X###.o",
"#O ###+ O",
"#OO##+ .O",
"oO##+ Xoo",
" o#o X#oo",
" oo X##oo",
"    ##@.#",
"   +##o.#",
"  O### +#",
"  ###.o##",
" .##..###",
" o#. ####",
" XX +####",
"   O#####",
"  X######",
"  +######",
"  #######",
" o#######",
" o#######"
};
