/* XPM */
static char *magick[] = {
/* columns rows colors chars-per-pixel */
"10 8 6 1",
"  c #0b0b0b",
". c #2f2f2f",
"X c Gray28",
"o c Gray45",
"O c Gray79",
"+ c Gray99",
/* pixels */
" o+++++++o",
"o X+++++X ",
"+O..+++..O",
"+++. o X++",
"++++   +++",
"+++X o .++",
"+O..+++..O",
"o X+++++X "
};
