/* XPM */
static char *magick[] = {
/* columns rows colors chars-per-pixel */
"11 8 8 1",
"  c Gray3",
". c #2a2a2a",
"X c #505050",
"o c #6f6f6f",
"O c #808080",
"+ c Gray73",
"@ c #c6c6c6",
"# c #f8f8f8",
/* pixels */
"########@ .",
"##@X .o.   ",
"##    .++  ",
"##   o##+ X",
"#+  +##+  +",
"#X +##o   #",
"o  +@.    #",
"   ..o. X@#"
};
