/* XPM */
static char *magick[] = {
/* columns rows colors chars-per-pixel */
"13 10 8 1",
"  c #070707",
". c Gray20",
"X c Gray26",
"o c Gray39",
"O c #888888",
"+ c #b7b7b7",
"@ c #c1c1c1",
"# c None",
/* pixels */
"#############",
"##########OO#",
"###@.  o    O",
"###    .@+  +",
"###   o##+ X#",
"##+  +##+  +#",
"##X +##O   ##",
"#+  @+.    ##",
"#O    o  .@##",
"##OO#########"
};
