/* XPM */
static char *magick[] = {
/* columns rows colors chars-per-pixel */
"15 17 6 1",
"  c Gray1",
". c #464646",
"X c #838383",
"o c #b7b7b7",
"O c #cdcdcd",
"+ c None",
/* pixels */
"+++++++++++++++",
"++++++++++oXXXO",
"+++++++++o    +",
"+++++++++.   o+",
"++++++++o   .++",
"++++++++    o++",
"+++++++X   .+++",
"++++++o    ++++",
"++++++.   o++++",
"+++++o   .+++++",
"+++++    O+++++",
"++++.   X++++++",
"+++o    +++++++",
"+++.   o+++++++",
"++o   .++++++++",
"++    o++++++++",
"+O.XXO+++++++++"
};
