/* XPM */
static char *magick[] = {
/* columns rows colors chars-per-pixel */
"16 39 8 1",
"  c #060606",
". c #2f2f2f",
"X c #505050",
"o c Gray45",
"O c Gray55",
"+ c #aeaeae",
"@ c #d0d0d0",
"# c None",
/* pixels */
"################",
"#######+Oo@#####",
"######O   .###++",
"######X    @##oo",
"######X    @#O @",
"######@.     . #",
"########OoOo++.#",
"#############OX#",
"######@###### o#",
"#####.  o####.@#",
"####o    @##@ @#",
"####X    @##X.##",
"####+    XO  o##",
"#####+.    o O##",
"###########@ @##",
"###########+ @##",
"###########OX###",
"###+  .@###.X###",
"##@    .###.O###",
"##@    .##+ @###",
"###.   .OX  @###",
"####o    XXX####",
"#####@####.X####",
"#########@ @####",
"##+oo@###+ @####",
"#+    @##o #####",
"#O    +##.X#####",
"#O    +#O X#####",
"##.       @#####",
"###+oOo++ @#####",
"########X ######",
"########..######",
"#######@ O######",
"#######@ @######",
"#######O @######",
"#######..#######",
"####### .#######",
"######@ O#######",
"#######o@#######"
};
