/* XPM */
static char *magick[] = {
/* columns rows colors chars-per-pixel */
"8 8 7 1",
"  c #010101",
". c #3c3c3c",
"X c #747474",
"o c Gray53",
"O c #b7b7b7",
"+ c #c3c3c3",
"@ c None",
/* pixels */
"@@@@@@@@",
"@@@@@@o+",
"@@@o.  o",
"@+   X o",
"@@XO@@ o",
"@@@@@@ o",
"@@@@@@ o",
"@@@@@@OO"
};
