/* XPM */
static char *magick[] = {
/* columns rows colors chars-per-pixel */
"6 6 7 1",
"  c #0b0b0b",
". c #4e4e4e",
"X c #767676",
"o c #8b8b8b",
"O c Gray73",
"+ c Gray84",
"@ c Gray98",
/* pixels */
"@@@@+ ",
"@@o.  ",
"X   X ",
"+oO@@ ",
"@@@@@ ",
"@@@@@ "
};
