/* XPM */
static char *magick[] = {
/* columns rows colors chars-per-pixel */
"21 5 5 1",
"  c #010101",
". c #282828",
"X c Gray38",
"o c Gray59",
"O c #fefefe",
/* pixels */
"OOOOOX          XOOOO",
"OOOOOX          XOOOO",
"OOOOOX          XOOOO",
"OOOOOX          XOOOO",
"o....            ...."
};
