/* XPM */
static char *magick[] = {
/* columns rows colors chars-per-pixel */
"20 11 8 1",
"  c #070707",
". c #2f2f2f",
"X c Gray36",
"o c #767676",
"O c Gray60",
"+ c #acacac",
"@ c #d5d5d5",
"# c #fdfdfd",
/* pixels */
" o#######o o#######o",
" o######+   +######o",
"@.@#####O   O######.",
"#XO#####@   @#####OX",
"#O.######@O@######.O",
"##.o#############o #",
"##O o###########O O#",
"###. .+#######+. .##",
"###@.  .X+O+X.  .@##",
"#####.         .####",
"######+.      +#####"
};
