/* XPM */
static char *magick[] = {
/* columns rows colors chars-per-pixel */
"8 10 6 1",
"  c #020202",
". c #323232",
"X c Gray47",
"o c #868686",
"O c Gray73",
"+ c None",
/* pixels */
"++++++++",
"+++oXo++",
"++..X..+",
"+O +++ O",
"+o +++ o",
"+o +++ o",
"+o +++ o",
"+O +++ O",
"++..X..+",
"+++oXo++"
};
