/* XPM */
static char *magick[] = {
/* columns rows colors chars-per-pixel */
"8 8 6 1",
"  c Gray10",
". c Gray14",
"X c #909090",
"o c #b6b6b6",
"O c Gray84",
"+ c Gray99",
/* pixels */
"++o. .o+",
"+OXOOOXO",
"oX+++++X",
".O+++++O",
".O+++++O",
".O+++++O",
"oX+++++X",
"+OXOOOXO"
};
