/* XPM */
static char *magick[] = {
/* columns rows colors chars-per-pixel */
"25 12 8 1",
"  c #040404",
". c #2f2f2f",
"X c Gray30",
"o c Gray42",
"O c Gray56",
"+ c #b1b1b1",
"@ c #d3d3d3",
"# c #fdfdfd",
/* pixels */
"######XO#####.+##### @###",
"#####O o####O O####o +###",
"o@##O   O##o   +##X   @##",
" .#O     @o     @X    .##",
"#o     ...    X..    o.o#",
"#@    .#@    X#+    o#@ @",
"##O  .###o  X###X  o###..",
"###X.#####.X##### o####O ",
"###@######@######@#####O ",
"#######################O ",
"####################### X",
"######################@ +"
};
