/* XPM */
static char *magick[] = {
/* columns rows colors chars-per-pixel */
"26 10 8 1",
"  c #070707",
". c Gray18",
"X c #535353",
"o c Gray43",
"O c #8e8e8e",
"+ c Gray69",
"@ c #cdcdcd",
"# c Gray99",
/* pixels */
"##Xo######################",
"#+ @######################",
"#. ###@######@############",
"X O##@ +####+ @####O @####",
"  O##.  +##@   @##@  .@###",
"X O#o    +#X    +#.    @#o",
"#..@ .    o     .X     .o.",
"#@  +@     o@     O+     +",
"##O+##@.  .##@   X##+   o#",
"########. @###@ .@###@ .##"
};
