/* XPM */
static char *magick[] = {
/* columns rows colors chars-per-pixel */
"12 32 7 1",
"  c Gray1",
". c #2d2d2d",
"X c Gray50",
"o c #898989",
"O c #a0a0a0",
"+ c #cbcbcb",
"@ c None",
/* pixels */
"@@@@@@@@@@@@",
"@@@@@@@@o@@@",
"@@@@@@@@.+@@",
"@@@+.@@@.+@@",
"@@@+.@@@.+@@",
"@@@+.@@@.+@@",
"@@@+.@@@.+@@",
"@@@+.@@@.+@@",
"@@@+.@@@.. o",
"@@@+.@O.   o",
"@@@+       X",
"@+.       .+",
"@X       +@@",
"@o   .O@.+@@",
"@o ..@@@.+@@",
"@@@+.@@@.+@@",
"@@@+.@@@.+@@",
"@@@+.@@@.+@@",
"@@@+.@@@.. o",
"@@@+.@O.   o",
"@@@+       X",
"@+.       .+",
"@X       +@@",
"@X   .O@.+@@",
"@o ..@@@.+@@",
"@@@+.@@@.+@@",
"@@@+.@@@.+@@",
"@@@+.@@@.+@@",
"@@@+.@@@.+@@",
"@@@+.@@@.+@@",
"@@@+.@@@@@@@",
"@@@@O@@@@@@@"
};
