/* XPM */
static char *magick[] = {
/* columns rows colors chars-per-pixel */
"13 40 8 1",
"  c #040404",
". c Gray18",
"X c #484848",
"o c Gray45",
"O c #8b8b8b",
"+ c #b2b2b2",
"@ c #cecece",
"# c None",
/* pixels */
"#############",
"########O####",
"######o  .+##",
"####o       @",
"###X       +#",
"##.       @##",
"#O    OOO####",
"#O    #######",
"#O    #######",
"#O    #######",
"#O    #######",
"#O    O######",
"#O     O#####",
"#O     @#####",
"#O   o@######",
"##+.o########",
"#############",
"########@####",
"######+X o###",
"####@X    ..@",
"###@.      o#",
"##o       O##",
"#+    XX.O###",
"#O    #######",
"#O    #######",
"#O    @o.o@##",
"#O         o@",
"#O         .@",
"#O        X@#",
"#O    X .O###",
"#O    #@#####",
"#O    #######",
"#O    #######",
"#O    #######",
"#O    #######",
"#O    #######",
"#O   X#######",
"#O  .########",
"#O X#########",
"#@o##########"
};
