/* XPM */
static char *magick[] = {
/* columns rows colors chars-per-pixel */
"18 46 8 1",
"  c #0b0b0b",
". c #2d2d2d",
"X c #4c4c4c",
"o c #6d6d6d",
"O c #8d8d8d",
"+ c Gray70",
"@ c #d0d0d0",
"# c None",
/* pixels */
"##################",
"##############+###",
"#############X ###",
"############o  o##",
"###########@.X  ##",
"###########..#  X#",
"#oo##### #+ +#O  @",
"#O.#@@#O #X O##..#",
"#O       #o  #+ +#",
"#O       ##  ..X##",
"#o ....  ##O   @##",
"#oo####@ ###X .###",
"#oX#@@@@ ###o  +##",
"#O       ###.  .##",
"#O       ##O.@  O#",
"#O ....  #@ O#X  @",
"#oX####@ #o +#@. @",
"#OO##### #X .##.O#",
"########.#@  Oo ##",
"#######@ ##X   O##",
"######## @#@. o###",
"########.###o @###",
"######## ###oo####",
"######## ###oo####",
"######## ###oo####",
"########.@##oo####",
"########.###oo####",
"#######@ ###oo####",
"######## ###oo####",
"######## ###oo####",
"######## ###oo####",
"#######@ ###oo####",
"######## ###oo####",
"######## ###oo####",
"#######@ ###oo####",
"######## ###oo####",
"######## ###oo####",
"#######@ ###oo####",
"########.###oo####",
"######## ###oo####",
"######## ###oo####",
"######## ###oo####",
"############oo####",
"############oo####",
"############oo####",
"############++####"
};
