/* XPM */
static char *magick[] = {
/* columns rows colors chars-per-pixel */
"6 25 6 1",
"  c #020202",
". c Gray46",
"X c #818181",
"o c Gray67",
"O c #dadada",
"+ c None",
/* pixels */
"++++++",
"++o.o+",
"+o   O",
"+.   .",
"+o   O",
"++o.o+",
"++++++",
"++++++",
"++++++",
"++++++",
"++++++",
"++++++",
"++++++",
"++++++",
"++++++",
"++++++",
"++++++",
"++++++",
"++++++",
"++++++",
"++o.o+",
"+o   O",
"+.   .",
"+o   O",
"++o.o+"
};
