/* XPM */
static char *magick[] = {
/* columns rows colors chars-per-pixel */
"21 12 8 1",
"  c #040404",
". c Gray21",
"X c Gray29",
"o c Gray46",
"O c #888888",
"+ c Gray71",
"@ c #c0c0c0",
"# c None",
/* pixels */
"#####################",
"########ooooOO#######",
"####+o  .oo.    o+###",
"###O   +#####X    o##",
"##X    #######X    X#",
"#@     #######O     @",
"#O     ########     O",
"#@     O#######     @",
"##X    X#######    X#",
"###O    X#####+   o##",
"####+o    .oo.  o+###",
"########OOOooo#######"
};
