/* XPM */
static char *magick[] = {
/* columns rows colors chars-per-pixel */
"12 12 4 1",
"  c Gray0",
". c #444444",
"X c #888888",
"o c None",
/* pixels */
"oooooooooooo",
"ooooooXooooo",
"oooooX Xoooo",
"oooooX Xoooo",
"oooooX Xoooo",
"ooXXX. .XXXo",
"oX         X",
"ooXXX. .XXXo",
"oooooX Xoooo",
"oooooX Xoooo",
"oooooX Xoooo",
"ooooooXooooo"
};
