/* XPM */
static char *magick[] = {
/* columns rows colors chars-per-pixel */
"12 13 6 1",
"  c #020202",
". c Gray21",
"X c Gray46",
"o c #898989",
"O c Gray70",
"+ c None",
/* pixels */
"++++++++++++",
"+++++XXo++++",
"+++.     .++",
"++. O+++o .+",
"++ o+++++o +",
"+o +++++++ o",
"+o +++++++ o",
"+X +++++++ o",
"+o +++++++ o",
"+o +++++++ o",
"+o +++++++ o",
"+o +++++++ o",
"+OO+++++++OO"
};
