/* XPM */
static char *magick[] = {
/* columns rows colors chars-per-pixel */
"27 16 7 1",
"  c #040404",
". c Gray17",
"X c #767676",
"o c #909090",
"O c #afafaf",
"+ c Gray83",
"@ c None",
/* pixels */
"@@@@@@@@@@@@@@@@@@@@@@@@@@@",
"@+O@@@@@@@@@OXXO@@@@@@@@@O+",
"@o @@@@@@@@O    O@@@@@@@@ o",
"@+ +@@@@@@@o    X@@@@@@@+ O",
"@@ X@@@@@@@o    o@@@@@@@X @",
"@@X.@@@@@@@@X  X@@@@@@@@.X@",
"@@+ o@@@@@@@@++@@@@@@@@o +@",
"@@@. +@@@@@@@@@@@@@@@@+ .@@",
"@@@o .+@@@@@@@@@@@@@@+. o@@",
"@@@@. .+@@@@@@@@@@@@+. .@@@",
"@@@@+   X+@@@@@@@@+X   +@@@",
"@@@@@o    .OOOOOO.    o@@@@",
"@@@@@@o              o@@@@@",
"@@@@@@@O.          .O@@@@@@",
"@@@@@@@@@X        X@@@@@@@@",
"@@@@@@@@@@@OXooXO@@@@@@@@@@"
};
