/* XPM */
static char *magick[] = {
/* columns rows colors chars-per-pixel */
"14 37 8 1",
"  c #060606",
". c Gray22",
"X c #535353",
"o c #727272",
"O c Gray53",
"+ c #afafaf",
"@ c #d0d0d0",
"# c None",
/* pixels */
"##############",
"##########@o##",
"#########@  +#",
"#########o  .#",
"########@ @. +",
"#oo#@#.+o #+ O",
"#o     @X O@ #",
"#o     @@ ..o#",
"#oX+O+ +#X X##",
"#oo###.+## .##",
"#o oXo +#+  X#",
"#O     +#.O  @",
"#o ... @+ #o O",
"#OO###X+X @@ @",
"######.++ XO.#",
"######.+#   +#",
"######.+#O o##",
"######.+#@X###",
"######.+##O###",
"######.+##O###",
"######.+##o###",
"######.+##O###",
"######.+##O###",
"######.+##O###",
"######.+##o###",
"######.+##o###",
"######.+##O###",
"######.+##O###",
"######.+##o###",
"######.+##O###",
"######.+##O###",
"######X+##O###",
"######.+##O###",
"######O@##O###",
"##########O###",
"##########O###",
"##########@###"
};
