/* XPM */
static char *magick[] = {
/* columns rows colors chars-per-pixel */
"12 11 6 1",
"  c #040404",
". c Gray21",
"X c #4c4c4c",
"o c #6f6f6f",
"O c #b9b9b9",
"+ c None",
/* pixels */
"++++++++++++",
"+++++ooo++++",
"+++o.ooo.o++",
"++X o+++o .+",
"+O +..+..+ O",
"+oo++X X++oo",
"+oo++X X++oo",
"+O +..+..+ O",
"++X o+++o X+",
"+++o.ooo.o++",
"+++++ooo++++"
};
