/* XPM */
static char *magick[] = {
/* columns rows colors chars-per-pixel */
"9 10 5 1",
"  c #070707",
". c Gray20",
"X c Gray53",
"o c #d7d7d7",
"O c None",
/* pixels */
"OOOOOOOOO",
"OOOOooOOO",
"OOOo. OOO",
"OOO.  .OO",
"OO.    .O",
"OX      X",
"OO.    .O",
"OOo.  .oO",
"OOOO. oOO",
"OOOOooOOO"
};
