/* XPM */
static char *magick[] = {
/* columns rows colors chars-per-pixel */
"9 9 8 1",
"  c #010101",
". c #393939",
"X c #585858",
"o c #797979",
"O c Gray54",
"+ c #b1b1b1",
"@ c Gray83",
"# c None",
/* pixels */
"#########",
"####@@###",
"####oo###",
"###@  @##",
"###X  X##",
"##@    @#",
"##.    .#",
"#+      +",
"#+oOOOOo+"
};
