/* XPM */
static char *magick[] = {
/* columns rows colors chars-per-pixel */
"6 17 5 1",
"  c Gray1",
". c #777777",
"X c #8d8d8d",
"o c #c0c0c0",
"O c None",
/* pixels */
"OOOOOO",
"Oo.X.o",
"O.   .",
"O.   .",
"O.   .",
"O.   .",
"O.   .",
"O.   .",
"O.   .",
"O.   .",
"O.   .",
"O.   .",
"O.   .",
"O.   .",
"O.   .",
"O.   .",
"Oo.XXo"
};
