/* XPM */
static char *magick[] = {
/* columns rows colors chars-per-pixel */
"25 20 8 1",
"  c #060606",
". c #3c3c3c",
"X c #494949",
"o c #797979",
"O c Gray54",
"+ c #b4b4b4",
"@ c Gray84",
"# c None",
/* pixels */
"#########################",
"###########++############",
"#########+  O############",
"#########O  +############",
"#########X  #############",
"#########   #############",
"#########  o#############",
"########O  o###@######@##",
"####@@##o  +#@X   O@o  X#",
"##@OOOO@X  @OO@#+   oX  O",
"##O@##@O   O@####  o#o  O",
"#++####@  .#####+  +#+ X#",
"#O@#@@OX  X+####o  ######",
"#@OOOO#O  O@+###X  ######",
"##@@###X  @#O@##  o######",
"#######   ##O@#+  O######",
"#######   ##o##O  @######",
"#######X  X.+##O  #######",
"#######+   +###  X#######",
"########+o#####@#########"
};
