/* XPM */
static char * chordmod_dot_xpm[] = {
"5 3 2 1",
" 	c None",
".	c black",
" ..  ",
" ..  ",
"     "};
