/* XPM */
static char * accidental_none_xpm[] = {
"14 26 2 1",
" 	c none",
".	c black",
"              ",
"              ",
"              ",
"              ",
"              ",
"              ",
"            . ",
"            . ",
"            . ",
"            . ",
"            . ",
"            . ",
"            . ",
"            . ",
"            . ",
"            . ",
"            . ",
"            . ",
"            . ",
"        ..... ",
"       ...... ",
"       ...... ",
"        ....  ",
"              ",
"              ",
"              "};
