/* XPM */
static char * continuous_page_mode_xpm[] = {
"22 22 33 1",
" 	c None",
".	c #FFFFFF",
"+	c #898989",
"@	c #000000",
"#	c #F9F7F0",
"$	c #F7F3EA",
"%	c #F5F0E4",
"&	c #F3F0E2",
"*	c #F4F0E4",
"=	c #F4F1E4",
"-	c #F4F1E5",
";	c #F5F2E6",
">	c #F5F3E7",
",	c #F6F2E8",
"'	c #F5F3E8",
")	c #F6F4E9",
"!	c #F3EEDE",
"~	c #F4EEDF",
"{	c #F3EFE0",
"]	c #F3EFE1",
"^	c #F4F0E3",
"/	c #F2EBDA",
"(	c #F2EDDB",
"_	c #F2EDDD",
":	c #F2EDDE",
"<	c #F3EEDF",
"[	c #F3EEE0",
"}	c #F0EAD7",
"|	c #F1EAD8",
"1	c #F1EBD9",
"2	c #F2EBD9",
"3	c #2C1F7D",
"4	c #989893",
"                      ",
" .................... ",
" .........+.......+.. ",
" .@@@@@@@@@@@@@@@@@@. ",
" ..#$%+&*=-;>,')+.... ",
" .@@@@@@@@@@@@@@@@@@. ",
" ...+!~{]^==-+....... ",
" .@@@@@@@@@@@@@@@@@@. ",
" .................... ",
" .................... ",
" .........+.......+.. ",
" .@@@@@@@@@@@@@@@@@@. ",
" .....+/(_:!<[]&+.... ",
" .@@@@@@@@@@@@@@@@@@. ",
" ...+}|12333_+....... ",
" .@@@@@@@333@@@@@@@@. ",
" ........333......... ",
" ........333......... ",
" .......3333344...... ",
" ........333444...... ",
" .........3444....... ",
"            4         "};
