/* XPM */
static char * dotted_semibreve_xpm[] = {
"14 26 2 1",
" 	c none",
".	c black",
"              ",
"              ",
"              ",
"              ",
"              ",
"              ",
"              ",
"              ",
"              ",
"              ",
"              ",
"              ",
"              ",
"              ",
"              ",
"              ",
"              ",
"              ",
"              ",
"    ....      ",
"   .    .  .. ",
"   .    .  .. ",
"    ....      ",
"              ",
"              ",
"              "};
