/* XPM */
static char * rest_crotchet_xpm[] = {
"9 21 2 1",
" 	c None",
".	c black",
"         ",
"         ",
"         ",
"  .      ",
"   .     ",
"   ..    ",
"   .     ",
"  ..   ..",
"  .    ..",
" ..      ",
" .       ",
"  .      ",
"   .     ",
"  ...    ",
" ..  .   ",
" ..      ",
"  .      ",
"   .     ",
"         ",
"         ",
"         "};
