/* XPM */
static char * event_insert_xpm[] = {
"32 32 128 2",
"  	c None",
". 	c #FFE81F",
"+ 	c #FFEC19",
"@ 	c #FFE316",
"# 	c #B6920E",
"$ 	c #FFD515",
"% 	c #CD9B0F",
"& 	c #FFED18",
"* 	c #FED712",
"= 	c #F0BA10",
"- 	c #A8800D",
"; 	c #FFDE16",
"> 	c #FDCC0F",
", 	c #F9C30F",
"' 	c #AC820D",
") 	c #FFDC16",
"! 	c #FDC70E",
"~ 	c #FAC30F",
"{ 	c #DBA511",
"] 	c #FCE91F",
"^ 	c #F6ED1A",
"/ 	c #FBEA1A",
"( 	c #FEEC19",
"_ 	c #FFED19",
": 	c #FFF21A",
"< 	c #FED810",
"[ 	c #FDCB0B",
"} 	c #FCCA0B",
"| 	c #FCC410",
"1 	c #FFC915",
"2 	c #FFE518",
"3 	c #FBE819",
"4 	c #F1CC16",
"5 	c #A07A0D",
"6 	c #916C0C",
"7 	c #CD9C0F",
"8 	c #EFB810",
"9 	c #FDC410",
"0 	c #FEC610",
"a 	c #FEC510",
"b 	c #FDC60F",
"c 	c #FDCC0B",
"d 	c #FDD007",
"e 	c #FDCF08",
"f 	c #F8C010",
"g 	c #E5B10F",
"h 	c #B1880C",
"i 	c #4F3C06",
"j 	c #C4960E",
"k 	c #EBB70D",
"l 	c #FAC50D",
"m 	c #FCC80C",
"n 	c #FDCB0A",
"o 	c #FDD306",
"p 	c #FDD206",
"q 	c #FCC90B",
"r 	c #F3C10C",
"s 	c #C0960B",
"t 	c #826309",
"u 	c #392A05",
"v 	c #AF860C",
"w 	c #D3A10F",
"x 	c #F2BE0D",
"y 	c #FCCB0A",
"z 	c #FDCE08",
"A 	c #FDD305",
"B 	c #FDD107",
"C 	c #FDCD09",
"D 	c #F5C40B",
"E 	c #BE950B",
"F 	c #644C07",
"G 	c #F8C30E",
"H 	c #FBC90B",
"I 	c #D0A30C",
"J 	c #6C5308",
"K 	c #FBC413",
"L 	c #FBC60E",
"M 	c #FDCC0A",
"N 	c #FCCB0B",
"O 	c #F9C20F",
"P 	c #D4A010",
"Q 	c #FFE919",
"R 	c #FED512",
"S 	c #FDCC09",
"T 	c #FBC70D",
"U 	c #E5B010",
"V 	c #88660B",
"W 	c #FFE318",
"X 	c #FEC910",
"Y 	c #FAC70C",
"Z 	c #F5C10D",
"` 	c #F5BE10",
" .	c #F9C40D",
"..	c #E9B40F",
"+.	c #98720C",
"@.	c #FFEA18",
"#.	c #FAC20F",
"$.	c #D5A80C",
"%.	c #9F790B",
"&.	c #AD810E",
"*.	c #CC9C0E",
"=.	c #E7B20F",
"-.	c #F7C30D",
";.	c #F5BD10",
">.	c #D7A210",
",.	c #FFED1A",
"'.	c #FCDA13",
").	c #D3A60B",
"!.	c #755A08",
"~.	c #A47A0D",
"{.	c #D4A30E",
"].	c #F6C10D",
"^.	c #DBA80F",
"/.	c #906C0B",
"(.	c #FFDD18",
"_.	c #C1950D",
":.	c #6B5307",
"<.	c #A87E0D",
"[.	c #D3A20E",
"}.	c #DDAA0F",
"|.	c #AF830E",
"1.	c #B69510",
"2.	c #735709",
"3.	c #A77E0D",
"4.	c #B0860D",
"5.	c #B7890F",
"6.	c #A0840E",
"7.	c #6F5309",
"                                                                ",
"                                                                ",
"                                                                ",
"                                                                ",
"                                                                ",
"                                                                ",
"                                .                               ",
"                                +                               ",
"                                @ #                             ",
"                                $ %                             ",
"                              & * = -                           ",
"                              ; > , '                           ",
"                              ) ! ~ {                           ",
"            ] ^ / ( + + _ : & < [ } | 1 2 + + + 3 4 5           ",
"              6 7 8 9 0 0 a b c d e } | a a f g h i             ",
"                  j k l m } n d o p e } q r s t u               ",
"                    v w x y z p A A B C D E F                   ",
"                        w G y d p p e H I J                     ",
"                          K L M z z N O P                       ",
"                        Q R m n q M S T U V                     ",
"                        W X Y Z `  .m m ..+.                    ",
"                        @.#.$.%.&.*.=.-.;.>.                    ",
"                      ,.'.).!.      ~.{.].^./.                  ",
"                      (._.:.          <.[.}.|.                  ",
"                      1.2.              3.4.5.                  ",
"                    6.                      7.                  ",
"                                                                ",
"                                                                ",
"                                                                ",
"                                                                ",
"                                                                ",
"                                                                "};
