/* XPM */
static char * group_slur_xpm[] = {
"17 19 23 1",
" 	c None",
".	c #777777",
"+	c #565656",
"@	c #6B6B6B",
"#	c #676767",
"$	c #000000",
"%	c #232323",
"&	c #0C0C0C",
"*	c #060606",
"=	c #010101",
"-	c #080808",
";	c #101010",
">	c #202020",
",	c #1F1F1F",
"'	c #292929",
")	c #222222",
"!	c #090909",
"~	c #030303",
"{	c #111111",
"]	c #434343",
"^	c #6D6D6D",
"/	c #020202",
"(	c #282828",
"      . +@#$$%&* ",
"      =-;>>,')!= ",
"      ~{$$$]^. / ",
"      $        $ ",
"      $        $ ",
"      $        $ ",
"      $        $ ",
"      $        $ ",
"      $        $ ",
"      $    ($$$$ ",
"      $   ($$$$$ ",
"      $   ($$$$$ ",
"  ($$$$    ($$$  ",
" ($$$$$          ",
" ($$$$$          ",
"  ($$$        $  ",
"             $   ",
"    $$      $    ",
"      $$$$$$     "};
