/* XPM */
static char * group_decrescendo_xpm[] = {
"25 25 2 1",
" 	c None",
".	c #282828",
"                         ",
"                         ",
"                         ",
"                         ",
"                         ",
"                         ",
"                         ",
"                         ",
"                         ",
"......                   ",
"     .......             ",
"           ........      ",
"               .  .......",
"            ..........   ",
"    .........            ",
".....                    ",
"                         ",
"                         ",
"                         ",
"                         ",
"                         ",
"                         ",
"                         ",
"                         ",
"                         "};
