/* XPM */
static char * group_simple_tuplet_xpm[] = {
"17 26 2 1",
" 	c None",
".	c #000000",
"                 ",
"                 ",
"                 ",
"                 ",
"                 ",
"                 ",
"                 ",
"                 ",
"                 ",
"                 ",
"      ....       ",
" .    .....    . ",
" .    .  ..    . ",
" .      ..     . ",
" ....   ...  ... ",
"         ..      ",
"     ..  ..      ",
"      ....       ",
"                 ",
"                 ",
"                 ",
"                 ",
"                 ",
"                 ",
"                 ",
"                 "};
