/* XPM */
static char * group_slur_xpm[] = {
"17 26 2 1",
" 	c None",
".	c #000000",
"                 ",
"              .. ",
"            .... ",
"          ...... ",
"        ........ ",
"      .......  . ",
"      .....    . ",
"      ...      . ",
"      .        . ",
"      .        . ",
"      .        . ",
"      .        . ",
"      .        . ",
"      .        . ",
"      .    ..... ",
"      .   ...... ",
"      .   ...... ",
"  .....    ....  ",
" ......          ",
" ......          ",
"  ....        .  ",
"             ..  ",
"    ..     ...   ",
"     .......     ",
"                 ",
"                 "};
