/* XPM */
static char * manage_midi_devices_xpm[] = {
"32 32 215 2",
"  	c None",
". 	c #000000",
"+ 	c #030303",
"@ 	c #363636",
"# 	c #9C9C9C",
"$ 	c #8A8A8A",
"% 	c #202020",
"& 	c #BABABA",
"* 	c #FFFFFF",
"= 	c #F0F0F0",
"- 	c #060606",
"; 	c #0C0C0C",
"> 	c #606060",
", 	c #E7E7E7",
"' 	c #6C6C6C",
") 	c #B7B7B7",
"! 	c #CFCFCF",
"~ 	c #535353",
"{ 	c #818181",
"] 	c #D2D2D2",
"^ 	c #645337",
"/ 	c #605035",
"( 	c #625136",
"_ 	c #635237",
": 	c #645338",
"< 	c #383838",
"[ 	c #AEAEAE",
"} 	c #646464",
"| 	c #707070",
"1 	c #B8B8B8",
"2 	c #141414",
"3 	c #888888",
"4 	c #EAEAEA",
"5 	c #282828",
"6 	c #615036",
"7 	c #604F35",
"8 	c #010101",
"9 	c #2F2F2F",
"0 	c #5F5F5F",
"a 	c #C9C9C9",
"b 	c #0A0A0A",
"c 	c #F6F6F6",
"d 	c #FEFEFE",
"e 	c #CCCCCC",
"f 	c #676767",
"g 	c #DADADA",
"h 	c #E3E3E3",
"i 	c #808080",
"j 	c #B6B6B6",
"k 	c #484848",
"l 	c #959595",
"m 	c #565656",
"n 	c #090909",
"o 	c #B5B5B5",
"p 	c #909090",
"q 	c #2A2A2A",
"r 	c #5F4F35",
"s 	c #E1E1E1",
"t 	c #F3F3F3",
"u 	c #D8D8D8",
"v 	c #727272",
"w 	c #545454",
"x 	c #5F4E34",
"y 	c #3A3020",
"z 	c #AE2525",
"A 	c #AF2626",
"B 	c #655438",
"C 	c #66573D",
"D 	c #3A3836",
"E 	c #675539",
"F 	c #C2BCB2",
"G 	c #B22F2F",
"H 	c #B02828",
"I 	c #887D6B",
"J 	c #404040",
"K 	c #5C5C5C",
"L 	c #B73E3E",
"M 	c #B02929",
"N 	c #BF4A4A",
"O 	c #665539",
"P 	c #5F4F36",
"Q 	c #EAE8E4",
"R 	c #D3D3D3",
"S 	c #CDCDCD",
"T 	c #AF2727",
"U 	c #D68E8E",
"V 	c #D08181",
"W 	c #C2594F",
"X 	c #A0988D",
"Y 	c #A1A1A1",
"Z 	c #878787",
"` 	c #D1D1D1",
" .	c #B73A3A",
"..	c #D28989",
"+.	c #D38888",
"@.	c #51432D",
"#.	c #787878",
"$.	c #FDFDFD",
"%.	c #F8EBEB",
"&.	c #4C4C4C",
"*.	c #BEBEBE",
"=.	c #020202",
"-.	c #B53838",
";.	c #DAACAC",
">.	c #F4EAE1",
",.	c #792727",
"'.	c #852727",
").	c #AE3F3F",
"!.	c #C6C6C6",
"~.	c #505050",
"{.	c #ECECEC",
"].	c #5D5D5D",
"^.	c #393939",
"/.	c #232323",
"(.	c #B22E2E",
"_.	c #C96B6B",
":.	c #DCC8C8",
"<.	c #D08F8E",
"[.	c #F6EAD8",
"}.	c #665438",
"|.	c #A58671",
"1.	c #CC7171",
"2.	c #DA9F9E",
"3.	c #F1DBDB",
"4.	c #CB6F6F",
"5.	c #9B2020",
"6.	c #5F4E4E",
"7.	c #D7D7D7",
"8.	c #DCDCDC",
"9.	c #B02A2A",
"0.	c #BC4C4C",
"a.	c #BE5151",
"b.	c #E7C2C2",
"c.	c #D4CACA",
"d.	c #7D7575",
"e.	c #D48A8A",
"f.	c #FDFCFB",
"g.	c #D79897",
"h.	c #ECD1D0",
"i.	c #D79595",
"j.	c #DB9B9B",
"k.	c #B93232",
"l.	c #828282",
"m.	c #EFEFEF",
"n.	c #686868",
"o.	c #0E0E0E",
"p.	c #B74040",
"q.	c #E1B2B2",
"r.	c #D9A5A5",
"s.	c #EADDDD",
"t.	c #CA9595",
"u.	c #CDA0A0",
"v.	c #ACA0A0",
"w.	c #D9C5C5",
"x.	c #ECD6D6",
"y.	c #E5B4B4",
"z.	c #E1A9A9",
"A.	c #CC7272",
"B.	c #BA3737",
"C.	c #2D2D2D",
"D.	c #B1B1B1",
"E.	c #DDA1A1",
"F.	c #DEA9A9",
"G.	c #D29A9A",
"H.	c #D0A8A8",
"I.	c #BAA8A8",
"J.	c #CEC5C5",
"K.	c #DBC7C7",
"L.	c #D39D9D",
"M.	c #D69C9C",
"N.	c #EFD4D4",
"O.	c #DDDDDD",
"P.	c #B02727",
"Q.	c #C05050",
"R.	c #D59696",
"S.	c #D0C2C2",
"T.	c #DED0D0",
"U.	c #C6C3C3",
"V.	c #8D8686",
"W.	c #C3B0B0",
"X.	c #D29393",
"Y.	c #D29292",
"Z.	c #C65F5F",
"`.	c #070707",
" +	c #8C8C8C",
".+	c #585858",
"++	c #D27B7B",
"@+	c #F1E4E4",
"#+	c #D7CFCF",
"$+	c #BCB4B4",
"%+	c #EAE6E6",
"&+	c #D29090",
"*+	c #D09393",
"=+	c #D28D8D",
"-+	c #DA9797",
";+	c #767676",
">+	c #373737",
",+	c #7F7F7F",
"'+	c #BD3F3F",
")+	c #E3AEAE",
"!+	c #EFEDED",
"~+	c #CFB8B8",
"{+	c #D69696",
"]+	c #D48E8E",
"^+	c #CDB1B1",
"/+	c #BF4D4D",
"(+	c #B83131",
"_+	c #CF7272",
":+	c #F3DCDC",
"<+	c #DBCFCF",
"[+	c #D8A4A4",
"}+	c #E7D8D8",
"|+	c #DB9999",
"1+	c #E1B3B3",
"2+	c #D88F8F",
"                            . +                                 ",
"                        . @ # $ .                               ",
"                  . . % & * * = -                               ",
"              . ; > . . , * * * ' .             )               ",
"          . . . ! * ~ . { * * * ] .         ) ^ / ( _ :         ",
"      . < [ } . | * 1 2 3 * * * 4 5     ) 6 7 7 7 7 _           ",
". 8 9 . 0 * a . b c * d * * e f 8 .     : ( 7 7 7 )             ",
"5 4 g . . h * i j * * * [ k .   .       ^ _ 7 / )         . l . ",
". ] * m n o * * * c p q .       l . l r 7 ( ^ )       . l l . l ",
". ' * s t * * u v ; .                 ( ( (   l . . . l     .   ",
"  - = * * & w . .                     ( (                 . l   ",
"  . $ # @ .                         ( (                 l .     ",
"    + .                           ( ( (                 . l     ",
"                                7 x 7                 . l .     ",
"                                7 7 y               . l   .     ",
"                  z A A     7 7 B C D .           . l     .     ",
"                A A A A     ( E : F = ; . .   . . l       .     ",
"                A G H     7 E E I * ' . J K .           . l     ",
"                  L M N 7 O B P Q R . . S * m . .       l       ",
"                T U V W r _ r X * * Y Z * ` . . > .     .       ",
"                 ...+.^ 7 7 @.. #.$.%.d * &.. f * *.=..         ",
"            A A -.;.>.( 7 7     ,.'.).* * !.~.{.* ].. ^./..     ",
"        A A M (._.:.<.[.}.|.1.2.3.4.5.6.7.* * * ) . =.8.$.#..   ",
"    z z A 9.0.a.b.c.d.e.f.g.h.i.e.j.k.  . l.* * m.n.Z * * * S o.",
"  z A A T p.q.r.s.t.u.v.w.x.y.z.A.B.      . C.D.* * * * * * 3 . ",
"    A A E.F.G.H.I.J.K.L.M.N.z                 . K s * * * O.+   ",
"    P.Q.e.R.S.T.U.V.W.X.Y.Z.z                   . `. +* * .+    ",
"      k.++@+#+$+g %+&+*+=+-+A                   ;+  . >+,+.     ",
"        k.'+)+!+~+{+]+^+e./+                  . l       .       ",
"            (+_+:+<+[+}+;+z             ;+& .                   ",
"                9.|+1+2+A & . . . . . ;+&                       ",
"                  z 9.P.                                        "};
