/* XPM */
static char * mixer1_1_xpm[] = {
"22 22 64 1",
" 	c None",
".	c #000000",
"+	c #A0A0A0",
"@	c #666666",
"#	c #D0D0D0",
"$	c #E5E5E5",
"%	c #9B9B9B",
"&	c #B8A4D4",
"*	c #9C8EA8",
"=	c #A9A4AB",
"-	c #979198",
";	c #8F8F8F",
">	c #818181",
",	c #949494",
"'	c #747474",
")	c #7A7A7A",
"!	c #3F3F3F",
"~	c #616161",
"{	c #FFFFFF",
"]	c #868686",
"^	c #020202",
"/	c #AFAFAF",
"(	c #CBCBCB",
"_	c #E9E9E9",
":	c #737373",
"<	c #D9D9D9",
"[	c #727272",
"}	c #3E3E3E",
"|	c #6A6A6A",
"1	c #EEEEEE",
"2	c #ECECEC",
"3	c #D2D2D2",
"4	c #6B6B6B",
"5	c #333333",
"6	c #8E8E8E",
"7	c #232323",
"8	c #F1F1F1",
"9	c #787878",
"0	c #070707",
"a	c #EAEAEA",
"b	c #5D5D5D",
"c	c #F7F7F7",
"d	c #434343",
"e	c #494949",
"f	c #FEFEFE",
"g	c #FAFAFA",
"h	c #515151",
"i	c #E7E7E7",
"j	c #F9F9F9",
"k	c #626064",
"l	c #F4F4F4",
"m	c #343434",
"n	c #2B2B2B",
"o	c #F5F5F5",
"p	c #464646",
"q	c #F8F8F8",
"r	c #F0F0F0",
"s	c #0F0A18",
"t	c #F6F6F6",
"u	c #EBEBEB",
"v	c #DFDFDF",
"w	c #E8E8E8",
"x	c #CFCFCF",
"y	c #2A2A2A",
"          .           ",
"          .  +        ",
"       .  .  .        ",
"       . @.+ .#       ",
"      .@@..@#.+ #     ",
"  @....+..@.+..+..@   ",
"      . .@$..@.@.     ",
"      @ .  .@ .       ",
"        @  .          ",
"           %          ",
"    &   *   =   -     ",
"    ;   @   >   ,     ",
"    '  )!)  ~ {$]$    ",
"    )  ^/.(_: <[}|    ",
"   1:2 .3. 45) ./.    ",
"   6!; 777 ./. .3.    ",
"   ./. 892 .3. 077    ",
"   .3. ab_ 777 c)c    ",
"   777 $d$ {ef ghi    ",
"   jkl 1m2 1nc opq    ",
"   rs$ t.u v.w xya    ",
"                      "};
