/* XPM */
static char * mixer1_xpm[] = {
"22 22 49 1",
" 	c None",
".	c #000000",
"+	c #A0A0A0",
"@	c #666666",
"#	c #D0D0D0",
"$	c #E5E5E5",
"%	c #7F7F7F",
"&	c #7A7A7A",
"*	c #0F0A15",
"=	c #E3E3E3",
"-	c #CECECE",
";	c #656268",
">	c #444444",
",	c #E0E0E0",
"'	c #434343",
")	c #383838",
"!	c #FFFFFF",
"~	c #020202",
"{	c #AFAFAF",
"]	c #CBCBCB",
"^	c #D9D9D9",
"/	c #727272",
"(	c #3E3E3E",
"_	c #6A6A6A",
":	c #EEEEEE",
"<	c #EBEBEB",
"[	c #D2D2D2",
"}	c #1A1A1A",
"|	c #8E8E8E",
"1	c #8F8F8F",
"2	c #232323",
"3	c #F1F1F1",
"4	c #787878",
"5	c #ECECEC",
"6	c #070707",
"7	c #EAEAEA",
"8	c #5D5D5D",
"9	c #E9E9E9",
"0	c #F5F5F5",
"a	c #F7F7F7",
"b	c #EDEDED",
"c	c #515151",
"d	c #E7E7E7",
"e	c #626064",
"f	c #F4F4F4",
"g	c #282828",
"h	c #CACACA",
"i	c #CCCCCC",
"j	c #C2C2C2",
"          .           ",
"          .  +        ",
"       .  .  .        ",
"       . @.+ .#       ",
"      .@@..@#.+ #     ",
"  @....+..@.+..+..@   ",
"      . .@$..@.@.     ",
"      @ .  .@ .       ",
"        @  .          ",
"           %          ",
"   &*= &*  -;&  *&    ",
"    >,  >   >   >     ",
"    '  &)&  & !$'$    ",
"    &  ~{.]$. ^/(_    ",
"   :)< .[. _}& .{.    ",
"   |)1 222 .{. .[.    ",
"   .{. 345 .[. 622    ",
"   .[. 789 222 0&a    ",
"   222 $'$ <>b $cd    ",
"   3ef [g[ [g[ [>[    ",
"   &*h i.& -.& jg&    ",
"                      "};
