/* XPM */
static char * transport_pointer_to_cursor_xpm[] = {
"22 22 3 1",
" 	c None",
".	c #000080",
"+	c #C000C0",
"                      ",
"                      ",
"                      ",
"  ....         ++++   ",
"  ....         ++++   ",
"  ....         ++++   ",
"  ....         ++++   ",
"  ....  ..     ++++   ",
"  ....  ..     ++++   ",
"  ....  ...    ++++   ",
"  ....  .....  ++++   ",
"  ....  .....  ++++   ",
"  ....  ....   ++++   ",
"  ....  ...    ++++   ",
"  ....  ..     ++++   ",
"  ....  ..     ++++   ",
"  ....         ++++   ",
"  ....         ++++   ",
"  ....         ++++   ",
"  ....         ++++   ",
"                      ",
"                      "};
