/* XPM */
static char * transport_solo_xpm[] = {
"14 12 11 1",
" 	c None",
".	c #696C69",
"+	c #0D0E0D",
"@	c #000000",
"#	c #333633",
"$	c #1F211F",
"%	c #353735",
"&	c #050605",
"*	c #070707",
"=	c #383A38",
"-	c #545854",
"              ",
"   .+@@@@@@#  ",
"  $@@@@@@@@@  ",
" @@@@@@@@@@@  ",
" @@@          ",
" %&@@@@@@*=-  ",
"  -=*@@@@@@&% ",
"          @@@ ",
"  @@@@@@@@@@@ ",
" @@@@@@@@@@$  ",
"  *@@@@@@+.   ",
"              "};
