/* XPM */
static char * scratch[] = {
"14 23 2 1",
" 	c none",
"#	c black",
"              ",
"              ",
"              ",
"              ",
"   ###########",
"   ###########",
"   #    #    #",
"   #    #    #",
"   #    #    #",
"   #    #    #",
"   #    #    #",
" ###  ###  ###",
"#### #### ####",
"###  ###  ### ",
"              ",
"              ",
"     ####     ",
"       #      ",
"      ##      ",
"        #     ",
"     ###      ",
"              ",
"              "};
