/* XPM */
static char * un_mute_all_xpm[] = {
"22 22 101 2",
"  	c None",
". 	c #3B19E9",
"+ 	c #C3A93C",
"@ 	c #B99C32",
"# 	c #B2952F",
"$ 	c #A9902B",
"% 	c #B49933",
"& 	c #D5C34F",
"* 	c #CAB445",
"= 	c #C0A438",
"- 	c #B79931",
"; 	c #AF942E",
"> 	c #F4EB70",
", 	c #EDE268",
"' 	c #E5D760",
") 	c #DBCB57",
"! 	c #232803",
"~ 	c #C7AE40",
"{ 	c #BD9F36",
"] 	c #B59830",
"^ 	c #CFB94D",
"/ 	c #DCC959",
"( 	c #E9D964",
"_ 	c #EDE069",
": 	c #F2E66D",
"< 	c #F3E96F",
"[ 	c #EBDF66",
"} 	c #D8C753",
"| 	c #CFBA49",
"1 	c #C3AA3D",
"2 	c #977C20",
"3 	c #A48B28",
"4 	c #B49C36",
"5 	c #C5AC43",
"6 	c #D3BD50",
"7 	c #E0CE5C",
"8 	c #EBDC67",
"9 	c #EEE26A",
"0 	c #DFD05A",
"a 	c #816515",
"b 	c #8F721B",
"c 	c #9C8023",
"d 	c #A88F2B",
"e 	c #B8A039",
"f 	c #CAB247",
"g 	c #D6C354",
"h 	c #E4D35F",
"i 	c #67540F",
"j 	c #765E12",
"k 	c #866915",
"l 	c #93761D",
"m 	c #A08425",
"n 	c #AD9530",
"o 	c #BEA63E",
"p 	c #CEB74B",
"q 	c #F1E56D",
"r 	c #4C420A",
"s 	c #5B4D0D",
"t 	c #6B5710",
"u 	c #7B6114",
"v 	c #896C17",
"w 	c #977B1F",
"x 	c #A38928",
"y 	c #B39A34",
"z 	c #EBDB66",
"A 	c #EFE16A",
"B 	c #303105",
"C 	c #403B08",
"D 	c #50450C",
"E 	c #60500E",
"F 	c #705A11",
"G 	c #7F6415",
"H 	c #8E7019",
"I 	c #9A7E22",
"J 	c #A78D2A",
"K 	c #C7B046",
"L 	c #D6C153",
"M 	c #E2D15F",
"N 	c #55480C",
"O 	c #65530F",
"P 	c #745D12",
"Q 	c #846715",
"R 	c #92751C",
"S 	c #AC932E",
"T 	c #BCA43D",
"U 	c #CDB54A",
"V 	c #5A4C0D",
"W 	c #695610",
"X 	c #796013",
"Y 	c #886A16",
"Z 	c #95791F",
"` 	c #A18826",
" .	c #4F440B",
"..	c #5F4F0E",
"+.	c #6E5911",
"@.	c #7E6314",
"#.	c #8D6E19",
"$.	c #433D09",
"%.	c #54480C",
"&.	c #63520F",
"*.	c #725C12",
"                                            ",
"                                            ",
"                                            ",
"                            .               ",
"                            .               ",
"              + @ # $ %     . .             ",
"              & * = - ;     .   .     .     ",
"          > , ' ) ! ~ { ]   .   .     .     ",
"    ^ / ( _ : < [ ! } | 1   .         . .   ",
"2 3 4 5 6 7 8 9 ! ! ! 0 . . .         .   . ",
"a b c d e f g h ! ! ! . . . .         .   . ",
"i j k l m n o p ! ! ! q . . .         .     ",
"r s t u v w x y ! ! ! z A         . . .     ",
"B C D E F G H I J ! K L M       . . . .     ",
"        N O P Q R ! S T U         . . .     ",
"            V W X Y Z `                     ",
"               ...+.@.#.                    ",
"                $.%.&.*.                    ",
"                                            ",
"                                            ",
"                                            ",
"                                            "};
