/* XPM */
static char * manage_synth_plugins1_xpm[] = {
"23 22 87 1",
" 	c None",
".	c #FF6D0B",
"+	c #AA8974",
"@	c #9E9FA1",
"#	c #A8A9AB",
"$	c #ACADAE",
"%	c #909195",
"&	c #FFCAAA",
"*	c #EF4D45",
"=	c #9D9EA0",
"-	c #ADADAF",
";	c #D6D6D8",
">	c #B8B9BB",
",	c #FF944C",
"'	c #C3D0F9",
")	c #C3D1FE",
"!	c #BFCEFD",
"~	c #B6C3EF",
"{	c #F11B10",
"]	c #A6A7A9",
"^	c #D2DAF1",
"/	c #A6B0D1",
"(	c #C3C4C5",
"_	c #FFB5A1",
":	c #C5D1FB",
"<	c #EAEEFF",
"[	c #D5DEFF",
"}	c #BFCEFE",
"|	c #B3C0EB",
"1	c #9CA0AE",
"2	c #BAC9FA",
"3	c #C2D0FE",
"4	c #D5DEFE",
"5	c #C2CDF0",
"6	c #C1CFFF",
"7	c #B9C8F9",
"8	c #CBD4F1",
"9	c #CBD7FD",
"0	c #BECDFC",
"a	c #C8D4F9",
"b	c #000000",
"c	c #ADBAE3",
"d	c #B9C8F8",
"e	c #DC0A00",
"f	c #C1CDF6",
"g	c #BFCDFE",
"h	c #B6C1E7",
"i	c #BECDFD",
"j	c #C0CEFE",
"k	c #9AA2C2",
"l	c #6F6F70",
"m	c #A1ABCD",
"n	c #B0BCE1",
"o	c #B7C5F3",
"p	c #B6C4F3",
"q	c #B3B5B6",
"r	c #A9B4D5",
"s	c #ADAFB2",
"t	c #9EA2B0",
"u	c #989CA9",
"v	c #D0B9BC",
"w	c #ADB3C6",
"x	c #B0B7CE",
"y	c #D0CEE4",
"z	c #120000",
"A	c #BCCBFC",
"B	c #A9B3D2",
"C	c #AAAAAC",
"D	c #C2D1FD",
"E	c #6A6A6A",
"F	c #C1CFFE",
"G	c #9FA2AC",
"H	c #8B8B8D",
"I	c #C1CFFD",
"J	c #BCC6E3",
"K	c #BAC5E8",
"L	c #C0CFFF",
"M	c #BBC9F8",
"N	c #C3D1FF",
"O	c #C6D3FF",
"P	c #C2D1FF",
"Q	c #B7C5F4",
"R	c #BAC9F9",
"S	c #BBCAFB",
"T	c #A9AEBF",
"U	c #A8B1CE",
"V	c #A5AECA",
"                       ",
"    ...+       @#$%    ",
"  ..&&**.+   =-;;;;>%  ",
"  .,')!~{.   ]^')!/;(  ",
" ._:<<[}|{+ 1;:<<[}/2# ",
" .&3<4567{. 1;3<896/[1 ",
" .&0[abcde. 1;0[bfg%[% ",
" .&hij/bke+ l;/bmi2%2% ",
" _,&nopmbe  lqbr/%%21  ",
"  __stuee+   l1;[221%  ",
"    +%%+       111%    ",
"    ..._       ...+    ",
"  .._*b_++   ..*{{{.+  ",
"  .,vwbx1+   .*')!~{.  ",
" ._y<mzABC+ ._:<<[}|{+ ",
" ._D<wEFdGH .&3<4567{. ",
" .&I[JKL7GH .&0[abcde. ",
" .&MNOPAQGH .&hij/bke+ ",
" _,&RS2dG1  _,&nopmbe  ",
"  ._TUVGH+   __stuee+  ",
"    HHH+       +%%+    ",
"                       "};
