/* XPM */
static char *magick[] = {
/* columns rows colors chars-per-pixel */
"6 14 2 1",
"x c Gray0",
"  c None",
/* pixels */
"      ",
"      ",
"      ",
"      ",
"xx  xx",
"xx  xx",
" xxxx ",
"  xx  ",
"  xx  ",
" xxxx ",
"xx  xx",
"xx  xx",
"      ",
"      "
};
