/* XPM */
static char * notemod_flat_xpm[] = {
"5 8 2 1",
" 	c None",
"x	c black",
"x x  ",
"x x  ",
"x x  ",
"xxxxx",
"x x x",
"xxxx ",
"x x  ",
"     "};
