/* XPM */
static char * tail_down_1_xpm[] = {
"3 6 2 1",
" 	c black",
".	c None",
" ..",
"  .",
". .",
".. ",
".. ",
". ."};
