/* XPM */
static char *magick[] = {
/* columns rows colors chars-per-pixel */
"17 14 6 1",
"  c #020202",
". c #4b4b4b",
"X c Gray49",
"o c #898989",
"O c #b9b9b9",
"+ c None",
/* pixels */
"+++++++++++++++++",
"+++++++++OoooO+++",
"+++++++X       O+",
"+++++X          +",
"++++.           o",
"+++.            o",
"++X             o",
"++              +",
"+o             X+",
"+o            .++",
"+o           .+++",
"++          X++++",
"++O       X++++++",
"++++OoooO++++++++"
};
