/* XPM */
static char *magick[] = {
/* columns rows colors chars-per-pixel */
"11 17 5 1",
"  c #060606",
". c #4b4b4b",
"X c Gray52",
"o c Gray72",
"O c None",
/* pixels */
"OOOOOOOOOOO",
"OOOOo.XoOOO",
"OOO.    .OO",
"OOX .OO. XO",
"OO  XOOX  O",
"OX  XOO.  X",
"OX  OOOO  X",
"OX  OOOO  X",
"OX  XOOX  X",
"OO  XOO.  O",
"OOX .OO. XO",
"OOO.    .OO",
"OOOOo  oOOO",
"OOOOO  OOOO",
"OOOOO  OOOO",
"OOOOO  OOOO",
"OOOOOooOOOO"
};
