/* XPM */
static char *magick[] = {
/* columns rows colors chars-per-pixel */
"13 15 5 1",
"  c #020202",
". c #888888",
"X c #b4b4b4",
"o c Gray78",
"O c None",
/* pixels */
"OOOOOOOOOOOOO",
"Oo.OOOOOOOO.o",
"O. OOOOOOOO .",
"O. OOOOOOOO .",
"O. OOOOOOOO .",
"O. OOOOOOOO .",
"O. OOOOOOOO .",
"O. OOOOOOOO .",
"O. OOOOOOOO .",
"O. OOOOOOOO .",
"O. .OOOOOO. .",
"OO  XOOOOX  O",
"OOX  .OO.  XO",
"OOOX      XOO",
"OOOOO....OOOO"
};
