/* XPM */
static char *magick[] = {
/* columns rows colors chars-per-pixel */
"32 19 8 1",
"  c Gray1",
". c Gray19",
"X c #484848",
"o c Gray44",
"O c #8b8b8b",
"+ c #b1b1b1",
"@ c #d2d2d2",
"# c None",
/* pixels */
"################################",
"#@O############+o+############o@",
"#O +##########X   X##########+ O",
"#@ o#########+     +#########o @",
"## .#########O     O#########. #",
"##X @########O     O########@ X#",
"##O o#########o   o#########o O#",
"###  @#########+++#########@  ##",
"###o .#####################. o##",
"###@  O###################O  @##",
"####o  o#################o  o###",
"####@   o@#############@o   @###",
"#####O   .+###########+.   O####",
"######.    .o+@###@+o.    .#####",
"#######.       ...       .######",
"########.               .#######",
"#########+             +########",
"##########@o         o@#########",
"#############@OOOOO@############"
};
