/* XPM */
static char * bg_paper_white_xpm[] = {
"111 112 14 1",
" 	c None",
".	c #DEDCCA",
"+	c #D7D5BF",
"@	c #E1DFCF",
"#	c #E8E7DA",
"$	c #D1CEB5",
"%	c #DCD9C6",
"&	c #E3E1D1",
"*	c #E4E2D3",
"=	c #D5D2BB",
"-	c #EAE9DD",
";	c #EBEADF",
">	c #F0EFE6",
",	c #CAC7AA",
"..+..+@.+#..+.$%..@&*&@@...**.+$..+%.+.+%&%$+=$..$..=+.$@-;@%...&=$+@#*=..@*@..@++.*@==.=.@.+.@.+...%%%%.*%@.+#",
"##.&*.&..;@&.#&;-##-;-&.$%##.+.>**%.@..+.#.%@..#@.*-@*-&.#;*@*-##..@@#*%@...%+%@.+.@@..*$+...*#;........@;**+$&",
"-#.*#@*.*;&#*>#>>;-;>>*.@&**..*>>>*--*-.@*@.**@;&@##@*;-*;>-**#&#&#-*#;#;-##*&#;#..@&@@#.@*#*@*;@...@&&&#;&.++*",
"##.#;*-&*>*;#;.*;--;>>-@>-****#;>>->-*-&@*&@&@@***#*..**->>;**@.@@#;*#>;.&#--#*#;#*#*@@*;##;#..*;*@*-;;;;*%.*;>",
"##.#;*-&->@#&#%@**##-##*.@##*@#>@-*-@+&@@@&*&&&.#-#&@@@#@-;*@&@.++@*@&#*.&###*@.*###@..&*@@##@@*;&.&;;;;;@..->;",
"@*.**.@.*#+.+.+*.........%.*#***%*@*.+@@.+.&.@@..&.%@@.*.@&.+%+$==..%...#-#@@@@.+.**...@...&*@.@@+$+...@..*@..+",
".@.*@+.%+.+.%.+#..++%..%@.%@-#.+.*.&@%&..=.&..@=%.+=@@.@.*@%+%+$$=.@%.@..@.%%..++.@@.....@*&&&@..$$+%++.%+*.%%,",
".*@;#.*&$..;##.#-&..*-#*+.#;*..*&*%.@.@%*%&-@@@=@#..;;&#@##&*-;#$+*#.@-;.@**#-*.&*&@@@...*#*#;;@*..@*@@#@+@.*;+",
";#*;>-.%**#;-*@@#-##;>;#@*#-----.*---***&-.#.;*#>#*;;**>;--;-*@&-#------#@#>;-;#;*@&***&.*#;;;#*;@.#;#**%%*..-@",
"#**##&@*>-####;>--##-;-*@.*-;#*#*-----;>*;@#.#@&>*@--@@;;##;-**#*#;;;;;;&.*>---#>;;##**#@*#;;;##;--;;-#-..-@&>#",
"**-#*.&-#@.@&*#>##*&*#*@@%.#;*@*;---*@&*.*@*@;##;*@##@.*#**####-@*-;;--;#&->>;>;;;;#*&#;#;;;;*..*-;#&***@#>@@>#",
".*;;#@@&%%.@*@.@&@...*&.*++*-@.*--*@.......@.*&@#@@**@......@@*#.@@*####@%.*..*@.@&@@&**####*.+=.&@++.@..*-++;#",
".@****&@..@#-*@@@@...**@;%+@*.@-@.@**--*@@@%++=$@..@&@.+++++%..@*@..&##*#...+%@@.@@@*#&...@&*&@@*&.=+*#*+%@$=--",
"#*@@*;;;#**##*#;**@.@-;#>@%.@.*;****--*&*&*..+.+@@@@#-*..@@.@***;*..*#-#>-##.@##;;;##;@+.@@*****#&%+.#;;@.*++*.",
";;#@*;;;-*@@@&#;-#*@*;;->-&@@&#>>--&@..%@@#.#*;#@@@&->;@#;;##;-#>;-***#->*&*..**;>;#*#*.##***&@@#.%%.@*;-*;*@@+",
"#--*@@@.*@.@&&#;;-*@*-;->>-*&*-;>>*@@...&@#.#&;#%...*;-.#;;####@;>>;*@*;>*#-*&##.##..@*&@@&&&**&*.....@;*.;>;#+",
";;+.@@;.#*.%%.@*##*&..#>>>-@@##@**-;;*@@&#;#**&@#*..*&.#@@.+.-;#>;**###--#;;##;#;..@*##.#;#..#;@.&*@.+%.**-;#@@",
".@+@@%@+.++=+%..@@@.%+%.@*&.%.@@*&&*&....@&.%++$&&..*@.*&.%+%.@.@..@*##;#@@.=+.%#....&@+.*&.%@**-#****-;>-@@.%+",
"%..;;..%&@.@&*@.%.***@@@.*#.+%@##&@@..%.-#@+=+....%.&.%.&.++%++%@..*#***;*&@%.#-#.@&.@*.*##&.+.@@.++.@*#>&+=+%%",
"&&#>>*@&--;;;#**.*;;;-##*-;*..&;;#***@..;-*..&-;&#*->;*-&%+....@*&*--*..*.@@.@;;*@##@&-#;---&%%@*@..@*;>;@++...",
";&*;;-*#.@#-*..@-;;#**@.####@@&#>-#;;#@@.@&&*##&&#*;>;*-#@.*#@@#..@#-#*#@@#-@@*@..##.@-;#@@#-&@#;;>;##;>>-*##*@",
";*#*#>#-@@*#*.@;;>;*&**.*@*##**#-**#-*@.#*&.@#-#.@@*;*.@;#***@&*..&-;--;@@;>;--*.@--..-;;**-;#*##;>;*@*###->>;#",
"#*>@&>#-#..&*@*;*-#@@##@@@*-#@@&@.%.@@..;-&.@#;-&#*#>-@*##*.....&&#--##;.%@*.@&.@@##..**;;-#*@@&;;;;#*##...&#**",
".@>@.;&*&=,$+++..@.+=++$..&#&%+%.+$+....=%@#-#.$%.%.*.+%.&@+=%.+...&*&#;-**&%%.%..&@==%%.&*@..@&*@...@@..+$++++",
"**&@&@@@#-@.&@.@+...@*##%#>>*.@**.+.-;#@-;>.#&#+.#&.@.=$..&##@.@-*@@@.@-*@;@>-;.*@&******..*#-;>%@.@+@@-..@&.+$",
".@#-#&@.#;*@#*@*....*>>>@*--*&->#;>;*..@@*;.#@-@.&@.#-&@;-##*@@*>;-#@.*;>;>#>-;****-;;;;..@@...**#@;*>-;*******",
"%@;;#***-;#&#*.@**&*;>>;#**##*->;##;;#@@*#>**.@@&-*&-;*#;####*#;>;;#@.*;;;>#;->-**#;;>>>.&##.++.#*.-#>*@***&@*-",
"@*****#;;;@.@.%.#-;;;;*.*@*;#@*;*%+.-;*@-#-#*..@;>-*#*@*&*#;;##--#***#-;#-;###-#*#--;;;-#;>>#..*#*.#@;.%..@@@&*",
"..%..@@@##.+...@@#-*@..%@@*#@.@;.......*@..*&&@*-;#@*@.&###-#@.@*@@&#;-##;;;##&@.&*&*##&##-;-*@&*#.-@-@@%....*-",
"%++%..%=@@%+.@@-.@.+=+@*@&&.%.#>;*..&*#-..+..&..;;#&&.+.&...%+.@@@..@*@..*&-&;*@=%%+%.@.%++..%+=%..*.*.*@&.$$%@",
"@..@&@.+@@.%@**-@**..@#;&##..*;;>*.@#-#*.#.@=@.%;;#**.+.@.....@#@**.%...%@%*.;*@+..++@&..++..%+++.%*.*..@*.$$+.",
">>;#**#-@*..**.*;>>;;;-**;;@&;;@@*-*+,=.+#@@=#&*@**#;**>;;;>;##-#>>&%.*-;>@-.;..;>;*&;;#>;;>;-*#&#*>#;@..&*.@;>",
">#@@**#;;--#*@&#-;>>#.@#@;@-#.@++@#;*....@+@+*++-##;>>>#@@*;;##-;;#&*-;#-@%..@*#####&@..;-#;;#@..+;#@;@@**.>->*",
"#.%..@#;&#;#..@*-;>>-@*-&-@##.#....@##.+@*..+*.@&*****&@...@*&*-.&**#;;#>#@@@...@&***&&&###-;;#@++;;*;.+#*.;&-%",
"@...@@*#+....**@*&@@.+++@*.@@.*@.++.&*.+.@..=.....@..%..+==+%%.@@@@....+@..@@.%%%........@&...%$%+&.%&@.-@+.%.=",
".@*##*...%=$.;*+;#&&&...@@..%+%%+.@@...@.@@.+.++%......*%++%.%..-*.+++=$%+%.@.........%+%@&%++=,+=%+=.**#@+++%+",
"@*****@.-#@.@#@+#@.*--##*&*@..%...*@.+..*##@..**&..&*@*#*&&#-#**-*@.@@&****#*@@&#****&@.@#-**##@$+@-**-..@*....",
"-;#&&#;>-;>;**#;#@.@**@@##>;-;*-*@..**.+###.@@;;-**--**#-*#;>>--*&*-;;-;**#--##;-#*#--#*#-----#*@#->-#>&.*>;-.@",
";;;*@#>>-**#*@#>;#*#-#&@#*>;->#>*@.@**@.*@*+*.*.*@*-#..#-*&#;-***@&-;#*#..@##*#;*@@&##*&-@@*#@..>>*#.@>;@*>*-@-",
"@##&@@@.>@+.&.+.+=+.&&@&&.>*@-@;.@##@..@@.;.;.+,%.&-&%.->#&*#*@.#..@*#->@@*-#@.@*@.@*#&.#%+*;*@#@-@#@.>@;#;+@.>",
"*.#..*+.$.*@+=%@*+..+.#...@.++.@$=+...@@...#;.==+=$.&%+@$%@*@.+=+=+##.*%=...@%+&@*#-#.+*,&*.&@.*+.*@.@.%,=+=+.@",
".%#*#>*;....+=++.%..%.@..@&@...*+.@@....++......=$$.*..;.@**##&@=@.@.->.%..@@.%@+#*..*@.,%%+@@%@+......%.@*@..+",
"#*;;;>#;;;#*##**.&@@*@@*@&**@@&**#;;*@@@*;;#*#;>@@.@#..;-*&*#;-#&;#*.&>.&@&**@.@=@.+.*@@+.%.#&.@-*@**&@&%..@*--",
";;;---#-#*@@#;;;#>#*>;#>*######-##;;;##**;;&@#;*;;-;;..;;#*#;---;#@;&+**#&*--###@@.*-..>#*&-;*@*>;#;>;;>;-@..->",
"@&@@**;;...@*->>;>@.>>#;####-;-#&@@*##*@.#*.@#@$.&*;>@.;##;>>#*#@.%-&+#-#.&;##;-;-#>;@@>-&*;#@*#;*@#;##;>;@+.#;",
".@.@@.#*@&**&*;>*@%%*#@.@...@&@.&@@&##@.&##*#;@$%..#;.+@.@->;&.&.@.@..;.*+@-.@;*@;-@@@@-.+.@..*&&..@&@@&@@.++.@",
"*;&-*%.+....%....%.@...+@.%%.....@*#*&&&@&@@&*.$@..**+,+..@--@.&-;&*..*+#%*-%%*.%..+@@.@+$+.+.#..@*@....--&%=$$",
"*>#>;..$-#*&&&@@.%->@.*.;*..*#*@+.**@.@#;;#*@@.+&..@*+,+&..#;#*->*.;#+@@>.;;++@%@=$.>&.;.+%.+#;%%*#@..%=@*&.%.&",
">;;;>>-@.>-%.;-*@###;-*#>;###@.@.;;.%%%.#-#@*;-*&*#*...@*-*.@;#%->**@%@...@&.@#@.@*#*@@#-*>#;*;.;.%*&@@.;-**#-;",
"@*#-;;*..-*.#>;*&#*#;#@@;##;>;*@@;-&&@@#@.@@@..@#-;-**#-#####--#%@@##@-*;#-#@*-*;--;-##;;-;;&-;&>@&;-##***###&.",
"+.@..**.;>-#>>&.&#**;#..@.@->;*@@***-*&;#@@*@+=%&**@..*#***#@+%*.*@##@-*@..@.*>>>#**&@&#;;&;+#*&>*->;#--.@*##*@",
"%@.$$.*@;;##;*%.%@@@*@%....@*@.@@..&-@.#*@....%%...%++......+$+.*#...+@.;**@++..;@%+%%%.#*.*+...-@*-@.&*...@@&#",
"*#&++@##....&.%&$...@..&***@+=.**@.&-@.&..+$%--.@@..%%..+..++@@..@+%%+@@-@**%+%.;@++%...@%@..+.+*.@.+=.....%++.",
";;-**#-#.*&@@..#+@**#**;;>;*+=.>*#&*-*@#*#.$+;;.#*&@...@*;#%.#*%.#@##@#@+=.*..->;@..@@@@.=@.#.#@@...=+..+%.@...",
">#*-;-#-*>;*#*@##;#*;;#;-;;#.%*>.#&.*#*-;>-..&*.#**&&&@@>>-@.@@%->;>>*-**.@*.+@-*@.@****@+@**@#*..@@..*.=.#;;-#",
">*.@#**;.-#@-;##;-..##@@.@##@.#>=@.+.*#-***@...*##**##**;*&**&*;#;*-#&;-#.@#..->*@@#;--;*@.;.*@*..@#*#-@.*;>;-#",
";#.>#>*#@.*-.*>#&**&*#-#.@@.%@*#.*;;##*@.@*##*@.#*@&@.@#;@.*#@%...+&#@---+.>>#;>-*@.@**@###*.%.-.##.%@&%@@*#--#",
".@.&$++&%%.&.@###--#*&&&*#&%+%..$%@@@&**-*.%%%.....@@.@*@@*#.=+@+.+@*.@.;%.##*#-*@%+%.@@**&@@*##%.......%%..@@.",
"@.+@.@.@*@%.;;*.*###*@@&%....#;>.&*@.@&*..%.@@.+.%.@*&**;@.@@....*.@@.&%;....@*@#@%+=+...%++@#*.#@.*&..@&@@*###",
";#&-;;*@->*@>;.@..*#*&*-*###-;>>;>;#@&##.%.*;;#...@&****>&%.##@.->@..@;@#&&.%.*@#*..%%.**.%@;;-#-*&##*@***&*##-",
"-;>;&+.**>>--@.;@@*##*#;##-;;;--*--#*-;>>;**-;-**&@.@@@.****@.@##>&@@&;@@*;#.@#**@@*##->#++#;@.#@&@@*;;*;-##-;;",
"-*-@&.#;>;**;;#*;#*--**-..@#-#*&.*-##-;;;-#-;;*@-#*@@*@.-#**#-##@-*;;#-.@*;;..#*;**;>;#-*++*#%+&-;*@*;#.;---;>>",
"*%..;#;->&.@->;.>*.*#&@#-*@@.+$$.#;;#*&.%.*;>;&.*#*@*-#.;&%.;>-..*@>>&&%&.*#..@.;@.#;#@@;#*#-#**>-&*#*.+..%...@",
"=+;*#$%...-#$$@**+=.&&*#.%+.....+.##*@.+...@@&&&....*-*.%.........+**+%+#..@...+.$$.--**@*.+%*@$-+$.#.%..%%....",
"+....%%&#;@@@.*@*##@@*#*....&**@*.*>#+%;@.@.=@#$...@-@.#%...+@;-#*@.&##&%++%.@@&&@&@...$+%..@&.=@&*#--*..@*##**",
";;#*-#*--;@*#@#.--*@&#*.---*@.@&@*-;*%%@&&#@+*-+-#*#;*@-..&&.*-&-####-;;@@@@&&&@*....*##@..@*&.+@#-&@##..@###**",
">>#*>;*@>>*;>;;@#*@@->-@-;;#@@*;%*;;*@..@*;#.-;@-#.@*.+@;-;;*#*+####-;;>#-;;-##*-&@#-#->>*@#;*@..#-@.#;#.*--#*#",
"#-&&;;.+-;*;;#;*#**#;;#@#--#&@*#+@-;#*@@.&***;>*;-@@#&.*>#-;-;#.&..&#-##*###*&@&*@@;>-*;>*@;;&.*@*#*&*##**#-;--",
".*@.##&@.&.@.%*&#####@..;;-#*@.%..@#*..#.@..*;#@*@%%@@.*@+%@*-;@@++.##@.....+++%+++&>#@>.%.#*..*;&@##.+%#*&*-;#",
".#@%.#-;%@.@.+@&..@**@.@####-#@.@..*@++@@*.%@*..++$$..%.@==%%..%&%+@#*..*@.%%%%%..==@.%-%+.**.@#&%+@*.+%*@.@**&",
".-*.@##-@-*#*.*@...*#***.@&*####@@&&.....-@%@..#**..#-*#;..@.++=#.@-;*@@#@.@#-#**;.$@.+&@..@#;;;+%.%.&*@@&*&@..",
".;-*;>#@#;#;-@*.>#@#;#@..@**@.&#.#;*@##@+-*.@.@>--@.-;**>**;*@@.#*->;@@#...*>>>;@>*%-#.##@%.#>>-.;;++*#.@#;#...",
".*--;>-.@#;>#.@#;>>@.*#@;**->;#*.*-#**#-%%-@&>-;@#*.*>;.;@.&@.@>%*;;&.@*#*@*#-;>@#;;;>>;**@@@&*#@@@%+.@@#@.@@..",
"#---;;-*##-;#@@*>>-&#>;&;#@&&@*##;;#*#-;#*>#*;@#-;#&#>>#>&.#;#->.#>>;*@@>-####;>#-;>>>;;##---;;>#*@.@###>-***&*",
"#@.@@@&#-#*##*@@-*@&###*-*&@..@#*#*..&**&.#*@&.#;#&@@**#-..*;#*-.*-;-*@.>;-*.%%.#**;-&@*.&***@&*#*&@#;;#;---#..",
".++%.%.##****@.@..*#.+.#*&*#*@@&..%+.@@..%.@@..-;@...+%@#.%@&..@@...@@@*,$+.@&->#..#*.+..@&@.+%.@*&@*##****@.%+",
"&..@&.@-&&**@..***;>#.@;*@.&##**@@@.&#*.*&@--@*-;&.@@..##&@*&.@#*.+.@@@*&*#-*.%%-..-;@.*---*@@*#.*-*@&####@%+.*",
";---#&&*@@*#&.@*>-#;>;##;@%.&##--;-#-;#@&*.->->-#@@*-#-;-##-#*->-@@#;#@@=+.#;;-;*..#;;;>-##*#-;>@;>;**-;*-;#*@@",
";>>-*&@.@@&##***>-*#;;-*>#@@&*-;;;;##-#*.&+*;;>.@..*-;-#-##;;;;;;**;;#@@&.@#-*..*@@*;>;;&..@*--#*-;-#-;>.->>-*.",
"#>>*@&*.*@@#;;#*#--#**#-;-;;-#-;-;-**-;;*;.*;#-$@@@&-;*.>--;>>#*-@.*#@@##@.*##@.--#*->;#*..@#;#@@****-;;&##@.#>",
"*&**.+.#;;&;-.*@-;;-@.@;@%$;**+*--@.&-;---**&@*-.%$@@;@*#*@#;;#@.%+.@@&*@-**;*.;#@@..#-.>-&.....*#@%%@@..*;#@@*",
"...*@%++#@=.#@@+.@##@.&;@@%*.#....%%@--*...@@@@*.@.#%..#%+++++=$*&*#*@..%.+=.=$%#@&@.*-@.....%+$......@.+.@.%.@",
"&@@##&.%&#&-#.;;#;>>;*#>@;#*.>;@--***-*..@******#-@#%..***@..%..**-;#&@**#*#;*.@#&*@.@#@***##*..@@@**@&#.@@...&",
">;#*##-;.-*-&.;>--;;-*@*@;-@@>>->>>>>-*.*---*#**>#+..*..;-#*&@@@*#-;#&#>.@*;>;*@;&@@.@&.##***&@@-**-#@*;###**#-",
"-#*@.*;>>-%@;;>&-@@*--##@@&.&*;;->>>>>-.*--&@**&-@$.%*..;#&*#-*.*#;;*.@#++.*##*.>*@**--@###**&@&#@.**.@-@**#->;",
".&*@.&####.@##;@>#&#;;#**.@@#.*-->>---*..**..*#***.*.*&;#&.&-;#@%.#;#@@*-#-#@->;;@&-;>>-&#-;#*@@....&**#.@*#;>>",
"@**@&#*.$@..%+@.#@.@@.++&.*.#.*-*--*&*&..*-@@##&#*.#.*@;@.%..&@@+%.&@.*-#*;#%@;#&.@#&&##+.@@.......@#;-@@*#*#;;",
"-#@.@#*.*;*#;;>#.@*#*...++@+&%#*+%%%.*--%*-@@*@%#.,%%*%+#**@&#-;#@.+++@;..-#+.*.++.@+$+.***&@&#;%..@->#+*##@.@&",
"##.-@#@----###*@*#-;;;#@*##@.&**------**@>>-..*-#-@@-;#;#;->+@@##@.>>@->;#*-;-##;;-->>-@-..#-@@-@*;.;;;+*&*###*",
"*-*>#;->-;;;;;;->>;--#@.@*&..&**-->>---**-;*..&*>>;->;*#-#;#.%*&*@.;;.#>;*&#-#***-;-;;;#;@.#-#*#.*-@;>>@-#@@@&#",
".*@>*;#>@*##*@&*;#@*#;;;##*&*##*>>>>>--*---*@&*##;;;>>##-@>&#%-*-#@>-%*>*..@*&@@@#;-#-;;;#&*-;#&.#**@;#@;-#*&*#",
"..+&.*.*;;>>-**->-@@**&@;-#*#-#*-----*..&*-***##&#**-#@#@.#@&.#&--*;#+.#.++......@*@@*#*##@.*;#.+&.@=&.@@*##**@",
"*.=.%@%.....+$$+*@.&*@.@@@.@@@@@...@@.%+=%@*...&-;*...%....*+@.....-*=...++.@@@@.....&@.@@.%.-#.$%+.=&@-%@*@.@.",
";#.#@-.@#*#;#@@#++.*#**;...@@@@*****-*.%$+.&.+.@#-&....*@@.;%#.%+%+#-.**@..@*****@..*-*..@...##@.@.&.@&;.*#@.*-",
"#-*>#;*--&&-#@.*@@#>#..*@*#-#@*;---->-*.@.&*&..*.##*-*&#*@&-*-#...%->#;;-*@*##**@***#;#&******##>#-*#.@&@-;#*;>",
"%&*>*#@;>##;;&.*..->;@*>-;>>#.@-*@&---@.>-&**@@*@;>>>#...+@.;*;.&@%#>#;-;#&*#*@@+.@@@&&@;;;;#*#;>*-@;%@@+*;;;>>",
"#-;-@..*;*@*-#@.>-@..&*&+*;#@&#*>*...@@&@;-.@*@.->>-..*-=.@.@-;*-;-@.*;>>>>-.*#%*&;*;&#.;;;;;#@@*;>@.;#**@@&#--",
"#..@#*.+&..*#@.+**...**@@#-#@*#-@%%@-#&..##*;>*.-;;#@@*#@.+$+*@+&**..@#;-@*-*&@+*@#@;.@..@#;*...;*#.%.%@.@*##**",
"%.@##*@*...**.+++..++@.=&@....@**.%@#*%$%..*>;@.*&@@&@@...$,$.@.**@..@&&;%%*@.%+@.#@#..+..*#*..@;..++%+@$.&*@.%",
"+.*;-*->..&#&.%.*;;**;#+&%+%%++.>*....++.@.@-*.&@@@**@...*&%$+@##*&@@@..;...%+....#@;.@.&&*##@@*;....@.*+.@@.%+",
"#.+@;;-***##*@@#*;;##;#%-@.&*..@#*&&@@*;*--;>#*>*&*-#@..#>>-.%.@##*##**@##;*.@*...;*;&#*;#*##**##&#.@;**##*@**#",
";*.@*###;-##*&#;.@&&*#@.;##-#*@@@*-;#*->.->>>;->*@*-#.%.-#####@.--;>>>;>.#>>*-;@..;#>*;#;;#;;##;##;**;&@>-**#;>",
"&@&&..*;;#**&@#;#*&#;#**#-#*@@@.@*#-*@@*.-;#--***..#-@......*##***-;;#->.@-;**#@..;#>*;#*#;;#*#;*@-#**.*;-#*&*#",
".=$+@#**#*@@@@&#*%+..+++&-#.%..%.......@*>#..*&@>@.->;*&%...%%@-...@.++.-.%@.+.@..;#;&#*=.;;@..;*+@##@%;-;>-@.%",
".&*@@*&....++.@@.+=.**...+.##..*.@*@@@.+*.&@@@%**@@->;*@*;.@@&>+@%+.@.%.$%.+$+++@#@*&.&.=.+=.+=*..%+++.@#&..@@.",
"->;*&**.*##&@**@.%.*;;*&#&@#*...&#-#@@&*>#;*&#*>#@.&##*#*&%*&.;.#@.&*@@*.*##*@.=**=$$$@&.*.+**.####*&*#>&@@@...",
"*#*..*#&-;-#;;-*;##;;-&@####*####--#@.*>;*-@...#;#***&*-*.%-#.##>#&**@@#;#&.&##*.##>;&*.##@@;>##&*#*@&#-*#-;;;;",
"#;#@*;>>-###;>;#>;-##*@.*;;##;;#;###@.#>*.#@..+.--;;-*@**.@;*@-;>;#-#@@*#*.%.*-;*;#;;@#&;#**;>;#@*#&@@@&**#*@@&",
"##*..*-#-*&*;;;-*@...@***;;#*#*.;*&***#-;#>#*-.&#-;;*..@@.##.*-#;#*-#@.*.@**@...@#@*&.*.&*#*@##&&-;#*#-#;;#.+++",
".@.++@***@.@@@@@&.%+%@@@.@*@@*@%@@..@#*.;@@+.#@*#*@@.+.@@.#@%*&&%+.@@..@+%..%+%..#&##.&..@#@+.*.+.@..@*@-#*@...",
"*--**;>;@..@@..@#*.%.&@++%..@&&@%@@..#*.@+=,=*.@@..@@.@*&=@@.@.*.+%@@..#@%==+%&;##++==**@@#@=.*.+..++%.%%++%.@@",
"#-#@.@@.@@*;;##-&@..*;#.@..@@..@.;;@@;>**%%+@>#*..*;>;###,.*@.+;;##-#*#>;&.@***#.##;;@*.#*#@=.#+;>>*@*#@@@@*--*"};
