/* XPM */
static char *magick[] = {
/* columns rows colors chars-per-pixel */
"12 12 6 1",
"  c #090909",
". c #232323",
"X c Gray47",
"o c #8b8b8b",
"O c #d5d5d5",
"+ c #f6f6f6",
/* pixels */
".OOOO+++OO+O",
"  .. o+o ...",
"     X+o    ",
"     X+X    ",
"O.    O.   .",
"+oXX     XXo",
"++++O   O+++",
"+oXX    .XXo",
"O.    O.    ",
"     X+X    ",
"     X+X    ",
"  .. o+o .. "
};
