/* XPM */
static char *magick[] = {
/* columns rows colors chars-per-pixel */
"25 37 8 1",
"  c Gray1",
". c #2d2d2d",
"X c Gray29",
"o c #797979",
"O c Gray53",
"+ c Gray69",
"@ c #d0d0d0",
"# c Gray99",
/* pixels */
"@@@@@##@#######o   @#####",
".... +# O####O..   .X@###",
"     O# o##+  +##@X   .##",
"     O# o#+   #####X   X#",
"     O# o#.   +####@    +",
"     O# O#     +####    X",
"     O# O#     O####X   .",
"     O# o#X    @####O    ",
"     O# o##o .@#####o    ",
"     O# o###########o    ",
"     O# o##OO#######O    ",
"     O# O##o #######o    ",
"     O# o##. #######o   .",
"     O# o##  +######o   o",
"     o# o#+  o######    @",
"     O# o#o   o####O  .@#",
"     O# o#  .X .... .o@##",
"     O# oX  O#@o...+@####",
"     O#     #############",
"     O#     #############",
"     O# X.  @##@+@+######",
"     O# O+  X@o    .o####",
"     O# o#.    O@@O.  o##",
"     O# o#o  .#####@   o#",
"     O# o#@  O######.   +",
"     O# o##  @######o   .",
"     O# o##o #######O    ",
"     O# o##o.#######o    ",
"     o# o###########O    ",
"     O# o##@O+######o    ",
"     O# o#@   o#####o    ",
"     O# O#     O####X   .",
"     O# o#     o####    X",
"     O# O#    X####@    +",
"     O# o#o   @####X   .#",
"     O# o##X  ###@.   X##",
"     O# o###O.XX   .X@###"
};
