/* XPM */
static char *magick[] = {
/* columns rows colors chars-per-pixel */
"9 50 7 1",
"  c Gray2",
". c #2c2c2c",
"X c #585858",
"o c Gray41",
"O c Gray72",
"+ c #c6c6c6",
"@ c None",
/* pixels */
"  @@@@@@ ",
"  @@@@@@ ",
"  @@@@@@ ",
"  @@@@@@.",
"  @@@@@@ ",
"  @@@@@@ ",
"  @@@@@@ ",
"  @@@@@@ ",
"  @@@@@@ ",
"  oooooo ",
"         ",
"  ...... ",
"  @@@@@@ ",
"  @@@@@@ ",
"  @@@@@@ ",
"  @@@@@@ ",
"  XXXXXX ",
"         ",
"  ...... ",
"  @@@@@@ ",
"  O++++O ",
"         ",
"         ",
"  OOOOOO ",
"  @@@@@@ ",
"  @@@@@@.",
"  @@@@@@ ",
"  OOOOOO ",
"         ",
"         ",
"  +++++O ",
"  @@@@@@ ",
"  ...... ",
"         ",
"  XXXXXX ",
"  @@@@@@ ",
"  @@@@@@ ",
"  @@@@@@ ",
"  @@@@@@ ",
"  ...... ",
"         ",
"  oooooo ",
"  @@@@@@ ",
"  @@@@@@ ",
"  @@@@@@ ",
"  @@@@@@ ",
"  @@@@@@ ",
"  @@@@@@ ",
"  @@@@@@ ",
"  @@@@@@ "
};
