/* XPM */
static char *magick[] = {
/* columns rows colors chars-per-pixel */
"13 27 8 1",
"  c #020202",
". c #323232",
"X c Gray31",
"o c Gray43",
"O c #939393",
"+ c #acacac",
"@ c #cecece",
"# c #fdfdfd",
/* pixels */
"########.+###",
"######+.  o##",
"####+.      .",
"###O        X",
"##.        .#",
"#X        .##",
"o    .O .+###",
"     .#######",
"     .#######",
"     .#@XX###",
"     .o    o#",
"             ",
"            +",
"           +#",
"         .+##",
"     .@o+####",
"     .#######",
"     .#######",
"     .#######",
"     .#######",
"     .#######",
"     .#######",
"     .#######",
"     o#######",
"    o########",
"   o#########",
"  @##########"
};
