/* XPM */
static char *magick[] = {
/* columns rows colors chars-per-pixel */
"13 17 8 1",
"  c #020202",
". c #2f2f2f",
"X c #4e4e4e",
"o c #6c6c6c",
"O c Gray54",
"+ c Gray68",
"@ c #cecece",
"# c #fdfdfd",
/* pixels */
"######## X###",
"######+.  o@#",
"####O        ",
"###.        o",
"##.        X#",
"@.        +##",
"     .+++@###",
"     .#######",
"     .#######",
"     .#######",
"     .#######",
"     .#######",
"      X@#####",
"       .#####",
"       @#####",
"      @######",
"OX  .@#######"
};
