/* XPM */
static char *magick[] = {
/* columns rows colors chars-per-pixel */
"12 23 8 1",
"  c #040404",
". c Gray16",
"X c Gray27",
"o c Gray47",
"O c #8b8b8b",
"+ c #afafaf",
"@ c #d2d2d2",
"# c None",
/* pixels */
"############",
"#######++###",
"#####+.  o+#",
"####X      O",
"##+       o#",
"#+    . .@##",
"#O   O@O####",
"#O   o######",
"#O   O@XO###",
"#O   .   ..+",
"#O         @",
"#O       .@#",
"#O   .X.X@##",
"#O   O######",
"#O   o######",
"#O   o######",
"#O   o######",
"#O   O######",
"#O   o######",
"#O   +######",
"#O  +#######",
"#o.@########",
"#@@#########"
};
