/* XPM */
static char *magick[] = {
/* columns rows colors chars-per-pixel */
"5 28 6 1",
"  c Gray2",
". c #2c2c2c",
"X c #717171",
"o c #bebebe",
"O c #dddddd",
"+ c #fefefe",
/* pixels */
"+O  O",
"+X  .",
"     ",
"     ",
"X    ",
"+OXXo",
"+++++",
"+++++",
"+++++",
"+++++",
"+++++",
"+++++",
"+++++",
"+++++",
"+++++",
"+++++",
"+++++",
"+++++",
"+++++",
"+++++",
"+++++",
"+++++",
"+++++",
"+oXXo",
"X    ",
"     ",
"     ",
"+X  ."
};
