/* XPM */
static char *magick[] = {
/* columns rows colors chars-per-pixel */
"14 51 8 1",
"  c #040404",
". c #2f2f2f",
"X c #535353",
"o c #747474",
"O c #8b8b8b",
"+ c Gray70",
"@ c Gray84",
"# c None",
/* pixels */
"##############",
"#++###########",
"#oo###########",
"#oo###########",
"#o.###########",
"#O ###########",
"#O O##########",
"#O  @#########",
"#O  o#########",
"#O   +########",
"#O   .########",
"#O    .#######",
"#ooo   O######",
"#oX#@   O#####",
"#O ##@   @####",
"#O +##@  .####",
"#O .###@  O###",
"#O  O###@  @##",
"#O   @###o o##",
"#O   .@###. @#",
"#O    o###@ o#",
"#oX.   O###..#",
"#oo#o   O##o #",
"#oX##+.  o#o #",
"#O ###@o  #O #",
"##XO####o . X#",
"##o #####O  @#",
"##o O#####X @#",
"##o  @####@ X#",
"##o  .@####o #",
"##o   .####@ O",
"##@.   o#### O",
"####O.  o### O",
"#####@.  o#@ O",
"#######O  +O @",
"########O . .#",
"#########O  +#",
"##########o O#",
"##########@  #",
"###########o #",
"###########@ O",
"############ O",
"############ O",
"############ O",
"###########+ @",
"###########o #",
"###########.o#",
"########### +#",
"##########o.##",
"########## o##",
"##########O###"
};
