/* XPM */
static char *magick[] = {
/* columns rows colors chars-per-pixel */
"12 35 8 1",
"  c Gray1",
". c #2f2f2f",
"X c Gray30",
"o c Gray46",
"O c #8d8d8d",
"+ c Gray68",
"@ c #d8d8d8",
"# c #fefefe",
/* pixels */
" o##########",
" o##########",
" o##########",
" .##########",
"  ##########",
"  +#########",
"  .#########",
"   +########",
"   .########",
"    O#######",
"     @######",
"     .######",
" X.   O#####",
" o@.   +####",
" o##o  .@###",
" o###o  o###",
" o####o  +##",
" o#####o .@#",
" o######. X#",
" o######@. @",
" o#######+ O",
" o########..",
" o########o ",
" o########@ ",
"@@######### ",
"########### ",
"########### ",
"########### ",
"##########O ",
"##########o ",
"##########.o",
"########## O",
"#########+ @",
"#########o.#",
"######### O#"
};
