/* XPM */
static char *magick[] = {
/* columns rows colors chars-per-pixel */
"28 15 8 1",
"  c Gray2",
". c #2c2c2c",
"X c Gray32",
"o c #6d6d6d",
"O c Gray57",
"+ c #afafaf",
"@ c #d0d0d0",
"# c None",
/* pixels */
"############################",
"#@o+########################",
"#O  .+######################",
"##@X  .+####################",
"####@o  .O##################",
"######@o  .O################",
"########@o  .O##############",
"###########o   X@###########",
"#############o.  X+#########",
"###############@X  .+#######",
"#################@X  .+#####",
"###################@o  .+###",
"#####################@o  .O#",
"#######################@o  O",
"#########################@O#"
};
