/* XPM */
static char *magick[] = {
/* columns rows colors chars-per-pixel */
"12 61 8 1",
"  c #040404",
". c #343434",
"X c Gray29",
"o c #777777",
"O c #888888",
"+ c Gray71",
"@ c Gray78",
"# c #fdfdfd",
/* pixels */
" o##########",
" o##########",
" o##########",
" .##########",
"  ##########",
"  o#########",
"   #########",
"   O########",
"    +#######",
"    X#######",
"     o######",
" oo   +#####",
" o#+   +####",
" .##+  X####",
"  ###+  X###",
"  O###+  +##",
"   ####+  ##",
"   X####X o#",
"    +####  #",
"     +###O @",
"     X#### o",
" oO   X###X ",
" o#+.  X##o ",
" X###X  X#O ",
"OX@###+  @o ",
"#O+####+   O",
"#o.#####+  #",
"#O O#####X @",
"#O  +##### X",
"#O  X#####o ",
"#O   X####+ ",
"#+    o#### ",
"###X   +### ",
"####+   +## ",
"#O@###X  #O ",
"#O+####X X.X",
"#O.#####X  @",
"#O +#####X #",
"#O X#####+ O",
"#O  X#####X ",
"#O   o####O ",
"#+    +#### ",
"##@.   +### ",
"####X   +## ",
"#####+  X#o ",
"######+  X +",
"#######+  o#",
"########+  #",
"#########o O",
"########## .",
"##########O ",
"########### ",
"########### ",
"########### ",
"########### ",
"##########+ ",
"##########o ",
"##########.O",
"########## +",
"#########o.#",
"######### O#"
};
