/* XPM */
static char *magick[] = {
/* columns rows colors chars-per-pixel */
"19 14 8 1",
"  c #070707",
". c #3a3a3a",
"X c #515151",
"o c #747474",
"O c #929292",
"+ c #aeaeae",
"@ c #d5d5d5",
"# c Gray99",
/* pixels */
"####XO########OX###",
"###X  +######+  X##",
"#+  +o X@##@X o+  +",
"  X###+  ++  +###X ",
"OX O####X  X####O .",
"##o X####OO####X o#",
"###O  @######@  O##",
"####@ .######. @###",
"###+  @######@  +##",
"##o X####OO####X o#",
"O. O####X  X####O .",
"  X###+  ++  +###X ",
"#+  @o X@##@X o+  +",
"###X  O######+  X##"
};
