/* XPM */
static char *magick[] = {
/* columns rows colors chars-per-pixel */
"11 13 7 1",
"  c Gray2",
". c #2c2c2c",
"X c #5f5f5f",
"o c Gray46",
"O c #959595",
"+ c Gray67",
"@ c Gray99",
/* pixels */
"@@@@@++@@@@",
"@@@@@..@@@@",
"@@@@.  .@@@",
"@@@O .  O@@",
"@@O o@   O@",
"@+ o@@o   +",
"X  o@@@o   ",
"X   o@@@o  ",
"@+   o@@o +",
"@@+   @o O@",
"@@@O  . O@@",
"@@@@.  .@@@",
"@@@@@..@@@@"
};
