/* XPM */
static char *magick[] = {
/* columns rows colors chars-per-pixel */
"9 11 8 1",
"  c Gray2",
". c #2d2d2d",
"X c Gray32",
"o c #747474",
"O c #8d8d8d",
"+ c #afafaf",
"@ c #d5d5d5",
"# c #f9f9f9",
/* pixels */
"#######@.",
"######o. ",
"###@o    ",
"#@o   .  ",
".   .+#  ",
"+X.+##o  ",
"####o    ",
"#@o   .  ",
"O.  .+@  ",
"X .+###  ",
"#@#####X "
};
