/* XPM */
static char *magick[] = {
/* columns rows colors chars-per-pixel */
"12 33 8 1",
"  c Gray1",
". c #313131",
"X c #555555",
"o c #727272",
"O c #8e8e8e",
"+ c #aaaaaa",
"@ c #d0d0d0",
"# c Gray99",
/* pixels */
"###o #######",
"###O X######",
"####X o#####",
"#####X +####",
"######  +###",
"######O  +##",
"######o  .##",
"######o   .#",
"#####@     X",
"#####o      ",
"####O       ",
"##@X       .",
"##.        @",
"@.       .@#",
"        o###",
".      X####",
"#o     @####",
"#@.   o#####",
"##@.  o#####",
"###@  O#####",
"####O .#####",
"#@++@O o####",
"+.   X  O###",
"         @##",
"          @#",
"    .oXX   @",
"@   @####+ O",
"#X o######@#",
"#O O########",
"## o########",
"##o.########",
"### ########",
"###+X#######"
};
