/* XPM */
static char *magick[] = {
/* columns rows colors chars-per-pixel */
"38 13 7 1",
"  c Gray1",
". c #4c4c4c",
"X c #7b7b7b",
"o c Gray52",
"O c #b6b6b6",
"+ c Gray76",
"@ c None",
/* pixels */
"@@@@@@@@@@@@@@@@@@@@@@@@@@@@@@@@@@@@@@",
"@@@@@@oO@@@@@@@@Oo@@@@@@@@@oO@@@@@@@@@",
"@@@@@o  O@@@@@@@  .@@@@@@@o  O@@@@@@@@",
"@@@@O    O@@@@@.   .@@@@@O    O@@@@@@@",
"@@@@.     O@@@O     .@@@@.     O@@@@X+",
"@@@o       .@@        O@X       .@@. o",
"@@O         ..         X         .O .@",
"@@. O.         X         ..         O@",
"@o .@@.       X@O        @@.       X@@",
"@+X@@@@O     .@@@@.     O@@@O     .@@@",
"@@@@@@@@O    O@@@@@.   .@@@@@O    O@@@",
"@@@@@@@@@O  X@@@@@@@.  @@@@@@@O  X@@@@",
"@@@@@@@@@@Oo@@@@@@@@@oO@@@@@@@@Oo@@@@@"
};
