/* XPM */
static char *magick[] = {
/* columns rows colors chars-per-pixel */
"11 13 6 1",
"  c Gray3",
". c #232323",
"X c #838383",
"o c Gray72",
"O c Gray86",
"+ c Gray99",
/* pixels */
"+++O    O++",
"++o.    .o+",
"+o  X++X  o",
"O. o++++o .",
"  X++++++X ",
"  ++++++++ ",
"  ++++++++ ",
"  ++++++++ ",
"  ++++++++ ",
"  ++++++++ ",
"  ++++++++ ",
"  ++++++++ ",
"  ++++++++ "
};
