/* XPM */
static char *magick[] = {
/* columns rows colors chars-per-pixel */
"38 20 8 1",
"  c #040404",
". c Gray18",
"X c #585858",
"o c Gray43",
"O c Gray56",
"+ c #a9a9a9",
"@ c #d3d3d3",
"# c #fdfdfd",
/* pixels */
"#########################Xo###########",
"#########################  ###########",
"#######o+########+o######  @o+########",
"######o  +######@  .##### .o  +#######",
"#####+    O#####X   .####      O######",
"#####.     O###O     .@##       O###@o",
"####o       .#@        O#        .##. ",
"###+         ..         X         .O o",
"##@. @O        .+.         o         @",
"##o o##O       O#@.        #O       O#",
"#@ .####@.    X####o       ##@.    o##",
"#. o#####@.  .@#####O   o  ###@.  .@##",
"+  @######@. +#######O .#  ####@. +###",
"   ########@@#########@@#  #####@@####",
"   ######################..###########",
"   ######################@@###########",
"@  @##################################",
"#O O##################################",
"#@  ##################################",
"##+ O#################################"
};
