/* XPM */
static char *magick[] = {
/* columns rows colors chars-per-pixel */
"5 14 8 1",
"  c Gray2",
". c Gray23",
"X c #565656",
"o c Gray45",
"O c Gray57",
"+ c #afafaf",
"@ c Gray80",
"# c #f9f9f9",
/* pixels */
"##  #",
"#O  O",
"#O   ",
"##   ",
"##o  ",
"##@  ",
"###  ",
"###  ",
"### .",
"##O O",
"##X #",
"#@ o#",
"#X ##",
"o +##"
};
