/* XPM */
static char *magick[] = {
/* columns rows colors chars-per-pixel */
"16 9 8 1",
"  c #040404",
". c Gray19",
"X c #535353",
"o c #747474",
"O c #909090",
"+ c Gray68",
"@ c Gray82",
"# c Gray99",
/* pixels */
"#####+ +########",
"#####. .@#######",
"####X    ######o",
"###o     X####+ ",
"##O       .+@X o",
"#@  X.        o#",
"+..@##+      o##",
"  #####@    .###",
"@#######@. .####"
};
