/* XPM */
static char *magick[] = {
/* columns rows colors chars-per-pixel */
"5 14 8 1",
"  c #060606",
". c Gray23",
"X c #565656",
"o c Gray46",
"O c Gray57",
"+ c Gray68",
"@ c #cbcbcb",
"# c Gray98",
/* pixels */
"#### ",
"###+ ",
"### X",
"##o @",
"#@ X#",
"#O O#",
"#. ##",
"+  ##",
"   ##",
"   @#",
"   o#",
"    #",
"@   O",
"#O  O"
};
