/* XPM */
static char *magick[] = {
/* columns rows colors chars-per-pixel */
"36 11 7 1",
"  c Gray1",
". c Gray30",
"X c #777777",
"o c #888888",
"O c Gray71",
"+ c #c0c0c0",
"@ c #fdfdfd",
/* pixels */
"@@@@@ X@@@@@@@@X @@@@@@@@@ X@@@@@@@@",
"@@@@o  O@@@@@@@  .@@@@@@@o  O@@@@@@@",
"@@@O    O@@@@@.   .@@@@@O    O@@@@@@",
"@@@.     O@@@O     .@@@@.     O@@@@o",
"@@X       .@@        O@o       .@@. ",
"@+         ..         X         .O .",
"@. O.         X         ..         +",
"  .@@.       X@O        @@.       X@",
"Xo@@@@O     .@@@@.     O@@@O     .@@",
"@@@@@@@O    O@@@@@.   .@@@@@O    O@@",
"@@@@@@@@O  o@@@@@@@.  @@@@@@@O  o@@@"
};
