/* XPM */
static char *magick[] = {
/* columns rows colors chars-per-pixel */
"17 27 8 1",
"  c #040404",
". c #353535",
"X c #585858",
"o c Gray47",
"O c #898989",
"+ c #b2b2b2",
"@ c #cecece",
"# c None",
/* pixels */
"#################",
"#@o@###@o@#######",
"#O O###o O#######",
"#O O#### o#######",
"#O O#### o#######",
"#O O#### o#######",
"#O O#### o#######",
"#O O#### o#######",
"#O o#### o#######",
"#O O#### o#######",
"#O O#### o#######",
"#O o#### o#######",
"#O O#### o#######",
"#O O#### o#######",
"#@ @#+++ o#@++@##",
"##.@X    XX.   O#",
"##              @",
"## .@@O  .@@O   O",
"## O###  o###o  O",
"## ####  o###o  +",
"## ###O  o###X .#",
"## ##@ O o##@ .##",
"## #@ +# o#+ X###",
"##.+ O## oo +####",
"##  +###  .######",
"## .#### .#######",
"##+#####++#######"
};
