/* XPM */
static char *magick[] = {
/* columns rows colors chars-per-pixel */
"8 31 8 1",
"  c #040404",
". c Gray19",
"X c #5f5f5f",
"o c #6f6f6f",
"O c #888888",
"+ c #b9b9b9",
"@ c #c8c8c8",
"# c None",
/* pixels */
"########",
"#+@#####",
"#oO#####",
"#oO#####",
"#oO#####",
"#XO#####",
"#oO#####",
"#oO#####",
"#ooOo. O",
"#o     O",
"#o     o",
"#O     o",
"#o  XO.o",
"#oO###OX",
"#oO###Oo",
"#oO###Oo",
"#oO###Oo",
"#XO###OX",
"#oO###OX",
"#o.OX  o",
"#O     o",
"#o     o",
"#o     o",
"#O .OOoo",
"######OX",
"######Oo",
"######Oo",
"######OX",
"######Oo",
"######Oo",
"######@+"
};
