/* XPM */
static char *magick[] = {
/* columns rows colors chars-per-pixel */
"12 17 5 1",
"  c Gray2",
". c Gray49",
"X c Gray54",
"o c #c8c8c8",
"O c None",
/* pixels */
"OOOOOOOOOOOO",
"OoXXXOOOXXXo",
"OX   OOO   X",
"OX   OOO   X",
"OX   OOO   X",
"OX   OOO   X",
"OX   OOO   X",
"OX   OOO   X",
"OX   OOO   X",
"OX   OOO   X",
"OX   OOO   X",
"OX   OOO   X",
"OX   OOO   X",
"OX   OOO   X",
"OX   OOO   X",
"OX   OOO   X",
"Oo.XXOOOXXXo"
};
