/* XPM */
static char *magick[] = {
/* columns rows colors chars-per-pixel */
"10 13 8 1",
"  c Gray1",
". c #313131",
"X c #4e4e4e",
"o c Gray48",
"O c #929292",
"+ c #b2b2b2",
"@ c #d0d0d0",
"# c None",
/* pixels */
"##########",
"######O@##",
"####O   X+",
"##@.    .#",
"#@.    X##",
"#o  .++###",
"#o  .#####",
"#o  .#####",
"#o  .#####",
"#O   O####",
"#o   X####",
"#o  X#####",
"##oO######"
};
