/* XPM */
static char *magick[] = {
/* columns rows colors chars-per-pixel */
"18 45 8 1",
"  c #0b0b0b",
". c #2d2d2d",
"X c #4c4c4c",
"o c #6d6d6d",
"O c #8e8e8e",
"+ c Gray70",
"@ c Gray81",
"# c None",
/* pixels */
"##################",
"##############+###",
"#############X ###",
"############o  o##",
"###########+ X  ##",
"#oo##### ##.X#  X#",
"#o.#@@#O #+ +#O  @",
"#O       #X o##..#",
"#O       #O  ++ +#",
"#O ...   ##  ..X##",
"#oo####@ ##@   o##",
"#oX#@@@@ @##   .##",
"#O       ##O O  O#",
"#O       #@ O#X  @",
"#O ....  #o +#@. @",
"#oX####@ #o .##.o#",
"#OO####@ #@  OO.##",
"######## ##o   O##",
"########.##@  o###",
"#######@ @##o @###",
"########.###oo####",
"######## ###oo####",
"######## ###oo####",
"######## ###oo####",
"######## ###oo####",
"########.@##oo####",
"########.###oo####",
"#######@ ###oo####",
"######## ###oo####",
"######## ###oo####",
"######## ###oo####",
"#######@ ###oo####",
"######## ###oo####",
"######## ###oo####",
"#######@ ###oo####",
"######## ###oo####",
"######## ###oo####",
"#######@ ###oo####",
"########.###oo####",
"######## ###oo####",
"########.@##oo####",
"############oo####",
"############oo####",
"############oo####",
"############++####"
};
