/* XPM */
static char *magick[] = {
/* columns rows colors chars-per-pixel */
"18 21 8 1",
"  c #020202",
". c #393939",
"X c Gray30",
"o c #717171",
"O c Gray55",
"+ c #a9a9a9",
"@ c Gray77",
"# c None",
/* pixels */
"##################",
"#++############++#",
"#oo############Xo#",
"#O oooooooooooo o#",
"#O              O#",
"#O              o#",
"#o.++++++++++++.o#",
"#oo############oo#",
"#O XXXXXXXXXXXX o#",
"#O              o#",
"#O              o#",
"#O @@@+@+@@@@@@ o#",
"#oo############oX#",
"##@############o #",
"###############+ #",
"################ #",
"################ #",
"################ O",
"################ O",
"################ O",
"################o+"
};
