/* XPM */
static char *magick[] = {
/* columns rows colors chars-per-pixel */
"12 16 8 1",
"  c Gray2",
". c Gray20",
"X c #515151",
"o c #777777",
"O c #8b8b8b",
"+ c #b4b4b4",
"@ c Gray81",
"# c None",
/* pixels */
"############",
"##+OO@######",
"#+    @###++",
"#o    @###Xo",
"#O    +#@X #",
"##.     . X#",
"###+oOoO#.O#",
"########+ @#",
"######## X##",
"#######@ @##",
"#######o ###",
"####### X###",
"######+ @###",
"######X ####",
"#####@ O####",
"#####@O@####"
};
