/* XPM */
static char *magick[] = {
/* columns rows colors chars-per-pixel */
"10 10 4 1",
"  c Gray57",
". c Gray73",
"X c Gray86",
"o c None",
/* pixels */
"oooooooooo",
"oooX   Xoo",
"oo. XXX .o",
"oX ooooo X",
"o XoooooX ",
"o XoooooX ",
"o XoooooX ",
"oX ooooo X",
"oo. XXX .o",
"oooX   Xoo"
};
