/* XPM */
static char * clef_bass_xpm[] = {
"12 29 2 1",
" 	c None",
".	c black",
"            ",
"            ",
"            ",
"            ",
"            ",
"  ...       ",
" ..  ..  .. ",
".    ..  .. ",
".     ..    ",
"..    ..    ",
"..    ..    ",
"      .. .. ",
"      .. .. ",
"     ..     ",
"     ..     ",
"     .      ",
"    ..      ",
"    .       ",
"   .        ",
"   .        ",
" ..         ",
"            ",
"            ",
"            ",
"            ",
"            ",
"            ",
"            ",
"            "};
