/* XPM */
static char *magick[] = {
/* columns rows colors chars-per-pixel */
"25 16 8 1",
"  c #070707",
". c #2f2f2f",
"X c #555555",
"o c Gray44",
"O c Gray57",
"+ c Gray69",
"@ c Gray81",
"# c None",
/* pixels */
"#########################",
"#######################O#",
"#####################+  O",
"###################@.  O#",
"#################@o  X@##",
"################o  .+####",
"##############+. .+######",
"############@X  X########",
"###########o  X@#########",
"#########+. .+###########",
"#######@X  o#############",
"#####@X  X@##############",
"####O  .+################",
"##@   +##################",
"#O  o####################",
"#+o@#####################"
};
