/* XPM */
static char *magick[] = {
/* columns rows colors chars-per-pixel */
"29 15 8 1",
"  c #040404",
". c #3c3c3c",
"X c #494949",
"o c #797979",
"O c Gray54",
"+ c #b6b6b6",
"@ c #c3c3c3",
"# c None",
/* pixels */
"#############################",
"##++#######+oOOOOO#########O#",
"#@  ####O.          o+####X O",
"#O  ##o    O###O      .+##  O",
"#O  #X    o######X      +#  O",
"#O  X     ########X      +  O",
"#O        ########+      .  O",
"#O        #########X        O",
"#O        +########o        O",
"#O        X########O     .  O",
"#O  .      +#######o     +. O",
"#O  #X      +######     +#  O",
"#O  ##o      X@##@.   .@##  O",
"#@  ####OX          o+####X O",
"##++#######+oOOOoO#########O#"
};
