/* XPM */
static char *magick[] = {
/* columns rows colors chars-per-pixel */
"27 14 8 1",
"  c #040404",
". c Gray24",
"X c #4b4b4b",
"o c #7c7c7c",
"O c #888888",
"+ c #b7b7b7",
"@ c #c1c1c1",
"# c None",
/* pixels */
"###########################",
"######OOO+##########OOO####",
"####o     .+######+     +##",
"###X        X#####       +#",
"##o          X####       X#",
"##  o##@.     X###X   X#X +",
"#O +#####+      +##OoO### O",
"#O #######+      +####### O",
"#O ###OoO##+      +#####+ O",
"#+ X#X   X###X     .@##O  #",
"##X       ####X          o#",
"##+       #####X        X##",
"###+     +######+.     o###",
"#####OOO##########+OOO#####"
};
