/* XPM */
static char *magick[] = {
/* columns rows colors chars-per-pixel */
"11 13 6 1",
"  c #040404",
". c Gray30",
"X c Gray",
"o c Gray53",
"O c Gray75",
"+ c None",
/* pixels */
"+++++++++++",
"++++OooO+++",
"+++.    .++",
"++o .++. o+",
"++  ++++  +",
"+o X++++X o",
"+o o++++o o",
"+o X++++o o",
"+o o++++X o",
"++  ++++  +",
"++o .++. X+",
"+++.    .++",
"++++OooO+++"
};
