/* XPM */
static char *magick[] = {
/* columns rows colors chars-per-pixel */
"38 17 8 1",
"  c #040404",
". c #3f3f3f",
"X c #4c4c4c",
"o c #797979",
"O c #848484",
"+ c #b6b6b6",
"@ c Gray76",
"# c None",
/* pixels */
"######################################",
"########################++############",
"########################  ############",
"######o+########+o######  #o+#########",
"#####O  +#######  X#####  o  +########",
"####+    +#####X   X####      +#######",
"####X     +###+     X###       +####o@",
"###o       X##        +#        X##X O",
"##+         XX         o         X+ X#",
"##X +X         o          X         +#",
"#O X##X       o#+         #X       O##",
"#+o####+     X####X       ##+     X###",
"########+    +#####X   .  ###+    +###",
"#########+  O#######X  #  ####+  O####",
"##########+o#########o@#  #####+o#####",
"########################  ############",
"########################++############"
};
