/* XPM */
static char *magick[] = {
/* columns rows colors chars-per-pixel */
"41 17 8 1",
"  c #020202",
". c Gray19",
"X c #555555",
"o c #747474",
"O c #8d8d8d",
"+ c Gray67",
"@ c #d5d5d5",
"# c None",
/* pixels */
"#########################################",
"####++###################################",
"###+ O###################################",
"##@  ####################################",
"##. O####################################",
"#@  @####@@########@@#########@@#########",
"#O  ####+ .@#######. O#######+ .@########",
"#O  ###@.  .@#####O   O#####@.  .@#######",
"#O  ###o    .@###@     O####o    .@####+@",
"#@  @#O       O##.      .@#O       O##O O",
"##o O@.        oo        .+.        O@ .@",
"##@ .X O.         X         ..         +#",
"###O  .##.       o#O        @#.       o##",
"####+X@###O     .###@.     O###O     .###",
"###########+    +#####.   X#####+    +###",
"############+  o#######X  @######+  o####",
"#############+o#########o+########+O#####"
};
