/* XPM */
static char *magick[] = {
/* columns rows colors chars-per-pixel */
"17 25 8 1",
"  c #040404",
". c #2f2f2f",
"X c #5b5b5b",
"o c #797979",
"O c Gray55",
"+ c #afafaf",
"@ c #d5d5d5",
"# c None",
/* pixels */
"#################",
"#@o############O@",
"#O +##########+ O",
"#@ o##########o @",
"##  ##########  #",
"##o @########@ O#",
"##O O########O O#",
"### .########. ##",
"###X @######@ X##",
"###O O######O O##",
"#### .######. ###",
"####X ###### X###",
"####O O####+ O###",
"####@ X####X @###",
"#####. #### .####",
"#####O O##O O####",
"#####@ X##X @####",
"######. ## .#####",
"######O @@ o#####",
"######+ OO +#####",
"#######    ######",
"#######o  o######",
"#######+  +######",
"########  #######",
"########+O#######"
};
