/* XPM */
static char *magick[] = {
/* columns rows colors chars-per-pixel */
"14 8 8 1",
"  c #010101",
". c Gray21",
"X c #484848",
"o c #777777",
"O c Gray56",
"+ c #b9b9b9",
"@ c #c8c8c8",
"# c None",
/* pixels */
"##############",
"###OO####OO@##",
"##.  o#+.   .#",
"#@oX @+   XO.+",
"#O@##+   +##@O",
"#+.OX   @@ Xo@",
"##X   .@#o  .#",
"###+OO####OO##"
};
