/* XPM */
static char *magick[] = {
/* columns rows colors chars-per-pixel */
"6 6 4 1",
"  c #909090",
". c Gray71",
"X c Gray86",
"o c None",
/* pixels */
"oooooo",
"oo. .o",
"oX.X..",
"o XoX ",
"o..X..",
"oo. .o"
};
