/* XPM */
static char * double_dotted_rest_hemidemisemi_xpm[] = {
"14 21 2 1",
" 	c None",
".	c #000000",
"              ",
"              ",
"              ",
"              ",
" ..  .        ",
" ....         ",
"    .         ",
" . ..  .. ..  ",
" ...   .. ..  ",
"   .          ",
". .           ",
"...           ",
"  .           ",
"..            ",
"..            ",
" .            ",
".             ",
".             ",
".             ",
"              ",
"              "};
