/* XPM */
static char *transport[]={
"13 12 2 1",
". c None",
"# c #000000",
".............",
".............",
"...#######...",
"...#######...",
"...#######...",
"...#######...",
"...#######...",
"...#######...",
"...#######...",
"...#######...",
".............",
"............."};
