/* XPM */
static char *magick[] = {
/* columns rows colors chars-per-pixel */
"10 16 8 1",
"  c Gray1",
". c Gray19",
"X c #535353",
"o c #6c6c6c",
"O c #8e8e8e",
"+ c #aeaeae",
"@ c #cbcbcb",
"# c None",
/* pixels */
"##########",
"####@#####",
"####O#####",
"####oO####",
"####X .+##",
"####X   .#",
"#O +O@X  O",
"#O +O##@.+",
"#O +O#####",
"#O +oX@###",
"#@X+o  o##",
"##@+o.   @",
"##@+O#O. O",
"##@+O###O#",
"##++O#####",
"###@@#####"
};
