/* XPM */
static char *magick[] = {
/* columns rows colors chars-per-pixel */
"9 24 8 1",
"  c Gray2",
". c #343434",
"X c Gray30",
"o c Gray45",
"O c #868686",
"+ c Gray71",
"@ c #c3c3c3",
"# c None",
/* pixels */
"#########",
"#@ooOooo#",
"#+Xo .oo#",
"#### o###",
"#### o###",
"#### o###",
"#### o###",
"#### O###",
"#########",
"#### o###",
"###O  ###",
"### o o##",
"##O #o ##",
"##X .  +#",
"#+ +##..#",
"#O ###O #",
"####@####",
"#O    O##",
"#O ##+ o#",
"#O oo. +#",
"#O oooX @",
"#O #### O",
"#O oXo. @",
"#@ooooo##"
};
