/* XPM */
static char *magick[] = {
/* columns rows colors chars-per-pixel */
"15 9 7 1",
"  c Gray5",
". c #2f2f2f",
"X c Gray36",
"o c #6f6f6f",
"O c #b1b1b1",
"+ c Gray80",
"@ c None",
/* pixels */
"@@@@@@@@@@@@@@@",
"@++@@@@@@@@@@@@",
"@O o+@@@@@@@@@@",
"@@@o.o@@@@@@@@@",
"@@@@@o XO@@@@@@",
"@@@@@@@oX.O@@@@",
"@@@@@@@@@O..O@@",
"@@@@@@@@@@@O..+",
"@@@@@@@@@@@@@OO"
};
