/* XPM */
static char *magick[] = {
/* columns rows colors chars-per-pixel */
"8 23 8 1",
"  c #070707",
". c #353535",
"X c #484848",
"o c #727272",
"O c #8d8d8d",
"+ c Gray68",
"@ c Gray82",
"# c None",
/* pixels */
"########",
"#@######",
"#O@#####",
"#O+#####",
"#o.#####",
"#O +####",
"#O X####",
"#+O o###",
"#o+@ +##",
"#o.#+ ##",
"#O +#oo#",
"#O  ##O#",
"#O+..#O@",
"#@##.XO@",
"#####.X#",
"#####+X#",
"######X+",
"######oo",
"######oo",
"######oo",
"###### @",
"#####+.#",
"#####++#"
};
