/* XPM */
static char *magick[] = {
/* columns rows colors chars-per-pixel */
"6 8 4 1",
"  c Gray0",
". c #868686",
"X c #c6c6c6",
"o c None",
/* pixels */
"oooooo",
"oX.o.X",
"o. o .",
"o. o .",
"o. o .",
"o. o .",
"o. o .",
"oX.o.X"
};
