/* XPM */
static char *magick[] = {
/* columns rows colors chars-per-pixel */
"5 8 2 1",
"  c Gray3",
". c Gray98",
/* pixels */
"  .. ",
"  .. ",
"  .. ",
"  .. ",
"  .. ",
"  .. ",
"  .. ",
"  .. "
};
