/* XPM */
static char *magick[] = {
/* columns rows colors chars-per-pixel */
"7 17 8 1",
"  c Gray5",
". c Gray20",
"X c #494949",
"o c Gray43",
"O c #8b8b8b",
"+ c #b1b1b1",
"@ c #c3c3c3",
"# c None",
/* pixels */
"#######",
"#@oOoo@",
"#+o..o+",
"###oo##",
"###oo##",
"###oo##",
"#######",
"###..##",
"##+XX+#",
"##.XX.#",
"#+.ooX+",
"#######",
"#O ..+#",
"#O oXX#",
"#O.OOX+",
"#o.OO.+",
"#@ooo+#"
};
