/* XPM */
static char *magick[] = {
/* columns rows colors chars-per-pixel */
"8 23 8 1",
"  c Gray3",
". c #323232",
"X c #505050",
"o c #727272",
"O c #8b8b8b",
"+ c #b1b1b1",
"@ c Gray82",
"# c None",
/* pixels */
"####@.@#",
"####X O#",
"###o o #",
"### X# +",
"### +# O",
"###.#+ O",
"###O@X @",
"###O. o#",
"###o o##",
"##O  @##",
"#@  .@##",
"#. #O@##",
"X O#X .@",
" .#o . .",
" o#.@X@.",
"OO#.+.#o",
"#+@#oXoo",
"##+O+..+",
"###@@oX#",
"#####@ @",
"#@ X#@O#",
"#O  #@O#",
"#@ .@@+#"
};
