/* XPM */
static char *magick[] = {
/* columns rows colors chars-per-pixel */
"9 6 6 1",
"  c Gray34",
". c Gray41",
"X c Gray57",
"o c #bbbbbb",
"O c #cdcdcd",
"+ c None",
/* pixels */
"+++++++++",
"+++++++Oo",
"+++++O. O",
"++++X O++",
"++X X++++",
"+oX++++++"
};
