/* XPM */
static char *magick[] = {
/* columns rows colors chars-per-pixel */
"6 22 8 1",
"  c #0e0e0e",
". c #323232",
"X c Gray31",
"o c #767676",
"O c #939393",
"+ c #afafaf",
"@ c Gray84",
"# c None",
/* pixels */
"######",
"#@####",
"#O@###",
"#O@###",
"#O.###",
"#O o##",
"#O@X+#",
"#o.#X#",
"#O XO@",
"#O@X.#",
"#OO#X@",
"#@ +@O",
"##+.OO",
"#O@#X@",
"#o.#+O",
"##oX@O",
"###+ #",
"####++",
"####@O",
"####@O",
"####O@",
"####@#"
};
