/* XPM */
static char *magick[] = {
/* columns rows colors chars-per-pixel */
"6 7 7 1",
"  c #101010",
". c #585858",
"X c Gray47",
"o c #8d8d8d",
"O c #b7b7b7",
"+ c Gray86",
"@ c None",
/* pixels */
"@@@@@@",
"@O+@+O",
"@OX@XO",
"@@.+.@",
"@@oXo@",
"@@+ +@",
"@@@o@@"
};
