/* XPM */
static char *magick[] = {
/* columns rows colors chars-per-pixel */
"4 5 6 1",
"  c #0e0e0e",
". c Gray34",
"X c Gray41",
"o c Gray57",
"O c #d2d2d2",
"+ c #f3f3f3",
/* pixels */
" O+O",
".o+o",
"OX+X",
"+oXo",
"++ O"
};
