/* XPM */
static char *magick[] = {
/* columns rows colors chars-per-pixel */
"2 5 6 1",
"  c Gray0",
". c #494949",
"X c Gray49",
"o c #838383",
"O c Gray84",
"+ c #fefefe",
/* pixels */
"+O",
"+X",
".o",
" o",
" ."
};
