/* XPM */
static char *button[]={
"21 21 86 2",
"Qt c None",
".V c #020202",
".F c #030303",
".N c #040404",
".v c #050505",
".z c #060606",
".r c #080808",
".W c #090909",
".M c #0a0a0a",
".9 c #0b0b0b",
".O c #0e0e0e",
"#e c #0f0f0f",
".2 c #101010",
".l c #121212",
".U c #161616",
"#p c #181818",
".j c #191919",
"#b c #1a1a1a",
".k c #1b1b1b",
"#c c #1c1c1c",
".E c #1d1d1d",
".P c #222222",
"#j c #262626",
".i c #272727",
".m c #282828",
".q c #2e2e2e",
".G c #2f2f2f",
".w c #303030",
".X c #313131",
".u c #323232",
"#k c #3e3e3e",
"#m c #444444",
"#. c #4b4b4b",
".1 c #4c4c4c",
".f c #4d4d4d",
".s c #4e4e4e",
"#s c #4f4f4f",
".L c #505050",
".T c #525252",
"#f c #565656",
".e c #585858",
"#r c #595959",
".3 c #5c5c5c",
"#l c #5e5e5e",
".B c #5f5f5f",
"#a c #616161",
".H c #636363",
".t c #656565",
"#o c #666666",
".Q c #676767",
"#q c #686868",
".h c #696969",
".n c #6b6b6b",
".C c #6e6e6e",
".A c #787878",
".y c #797979",
".d c #7b7b7b",
"#i c #7c7c7c",
".6 c #7f7f7f",
".7 c #858585",
".Y c #868686",
".I c #878787",
"#d c #898989",
".p c #8a8a8a",
".x c #8c8c8c",
".8 c #949494",
".5 c #979797",
".D c #9d9d9d",
"## c #a1a1a1",
".b c #a5a5a5",
"#t c #a6a6a6",
"#g c #a7a7a7",
".a c #a9a9a9",
".c c #aaaaaa",
".4 c #ababab",
".g c #acacac",
".o c #adadad",
".J c #b0b0b0",
".# c #b2b2b2",
".S c #b3b3b3",
"#n c #b5b5b5",
"#h c #b6b6b6",
".K c #b7b7b7",
".0 c #b8b8b8",
".Z c #bababa",
".R c #bbbbbb",
"QtQtQtQtQtQtQtQtQtQtQtQtQtQtQtQtQtQtQtQtQt",
"QtQtQtQtQtQtQtQtQtQtQtQtQtQtQtQtQtQtQtQtQt",
"QtQtQtQtQtQtQtQtQtQtQtQtQtQtQtQtQtQtQtQtQt",
"QtQtQtQtQtQtQtQt.#.a.b.a.#QtQtQtQtQtQtQtQt",
"QtQtQtQtQtQtQt.c.d.e.f.e.d.cQtQtQtQtQtQtQt",
"QtQtQtQtQtQt.g.h.i.j.k.l.m.n.oQtQtQtQtQtQt",
"QtQtQtQtQtQt.p.q.r.s.t.u.v.w.xQtQtQtQtQtQt",
"QtQtQtQtQtQt.y.k.z.A.g.p.B.C.DQtQtQtQtQtQt",
"QtQtQtQtQtQt.d.E.F.G.H.I.J.#.KQtQtQtQtQtQt",
"QtQtQtQtQtQt.g.L.M.N.O.P.QQtQtQtQtQtQtQtQt",
"QtQtQtQtQtQt.R.S.T.U.N.V.W.X.Y.ZQtQtQtQtQt",
"QtQtQtQtQt.R.0.K.K.Z.1.m.F.2.3.4QtQtQtQtQt",
"QtQtQtQtQt.S.5.6.7.J.Z.8.l.9#.##QtQtQtQtQt",
"QtQtQtQtQt.4#a#b#c#d.4#d.j#e#f#gQtQtQtQtQt",
"QtQtQtQtQt#h#i#j.v#k#l#m.M#j#i#nQtQtQtQtQt",
"QtQtQtQtQtQt.c#o#j.l#p.U.i#q.cQtQtQtQtQtQt",
"QtQtQtQtQtQtQt.c.d#r#s#r#i.cQtQtQtQtQtQtQt",
"QtQtQtQtQtQtQtQt.#.c#t.a.#QtQtQtQtQtQtQtQt",
"QtQtQtQtQtQtQtQtQtQtQtQtQtQtQtQtQtQtQtQtQt",
"QtQtQtQtQtQtQtQtQtQtQtQtQtQtQtQtQtQtQtQtQt",
"QtQtQtQtQtQtQtQtQtQtQtQtQtQtQtQtQtQtQtQtQt"};
