/* XPM */
static char *button[]={
"16 16 51 1",
". c None",
"k c #000000",
"E c #000100",
"t c #010101",
"B c #040504",
"I c #050505",
"p c #060606",
"M c #060806",
"l c #0b0b0b",
"Q c #0c0c0b",
"g c #0e0e0e",
"j c #131613",
"f c #141714",
"F c #151715",
"u c #1a1b1a",
"C c #2c2d2c",
"y c #303330",
"J c #353635",
"T c #3b3d3b",
"q c #3d3e3d",
"a c #414341",
"h c #414441",
"G c #505450",
"v c #5c5c5c",
"N c #656765",
"U c #6f6f6d",
"m c #6f726f",
"b c #757675",
"K c #7f827f",
"r c #878987",
"D c #8b8b8b",
"z c #8e928e",
"R c #9a9d9a",
"# c #a3a3a3",
"W c #a3a6a3",
"i c #a5a6a5",
"H c #a8aaa8",
"O c #adaead",
"n c #afb1af",
"w c #b0b0b0",
"V c #b2b3b0",
"c c #b3b6b3",
"L c #b5b7b5",
"s c #b8b9b8",
"P c #b9bab9",
"o c #bababa",
"e c #bbbbbb",
"S c #bbbcbb",
"d c #bdbdbd",
"A c #bdbebd",
"x c #c0c1c0",
"................",
"....#...........",
"....abcd........",
"...efghi........",
"...ejkklmno.....",
"...ejkkkpqrs....",
"...ejkkkktuvwx..",
"...ejkkkkkkpyzA.",
"...ejkkkkkkBCDd.",
"...ejkkkkEFGHx..",
"...ejkkkIJKL....",
"...ejkkMNOP.....",
"...efQqR........",
"...STUVd........",
"....Wo..........",
"....A..........."};
