/* XPM */
static char *led[]={
"20 34 4 1",
". c #000000",
"# c #404c80",
"b c #808fc0",
"a c #c0d8ff",
"....................",
"....................",
".....#aaaaaaaaaaaab#",
".....baaaaaaaaaab#..",
"....#.#...........b.",
"...#a#...........#ab",
"...#aab..........#ab",
"...#aab.........#aab",
"...baa#.........baa#",
"...baa#.........baa#",
"...baa#.........baa#",
"..#aab.........#aab.",
"..#aab.........#aab.",
"..#aab.........#aab.",
"..baa#.........baa#.",
"..ba#..........#ba#.",
"..b#..##bbbbb#..#b#.",
".....aaaaaaaaaa.....",
"......#bbbbb##..#b..",
"...............#ab..",
"..............#aab..",
"..............baa#..",
"..............baa#..",
"..............baa#..",
".............#aab...",
".............#aab...",
".............#aab...",
".............baa#...",
".............baa#...",
"..............#a#...",
"...............#....",
"....................",
"....................",
"...................."};
