/* XPM */
static char *magick[] = {
/* columns rows colors chars-per-pixel */
"22 61 8 1",
"  c #040404",
". c #353535",
"X c #494949",
"o c #777777",
"O c #868686",
"+ c #b7b7b7",
"@ c #c5c5c5",
"# c None",
/* pixels */
"######################",
"#############O########",
"############X o#######",
"###########X   #######",
"##########O    X######",
"#########+      +#####",
"#########X   O@ o#####",
"########+   X##  #####",
"########o   ###o +####",
"########X  O###o O####",
"########   ####O X####",
"########  o####o  ####",
"########  +####O  ####",
"########  #####X  ####",
"########X #####   ####",
"########O ####o  o####",
"########o ####   +####",
"########o ###O   #####",
"######### o#+   o#####",
"######### o#.  X######",
"#########.oX   +######",
"#########o    O#######",
"#########o   X########",
"########+   X#########",
"#######+   X##########",
"######+    o##########",
"######X  Xo ##########",
"#####X   @O ##########",
"####o   +#+ ##########",
"###+   +### o#########",
"###X  o#### o#########",
"##+  X#####o.Oo+######",
"##X  +###+X      o####",
"##  X###+         X###",
"#O  +###     .OX   X##",
"#O  ###O  +# o##@.  +#",
"#O o###  o##.o####X  #",
"#O O###  ###o ####+  +",
"#O O###  ###o #####X O",
"## o###X #### +####O O",
"##..###+ o### o####O O",
"##+ +###X +##.o####o @",
"###o.####X X#o ####  #",
"####..####+O#o ###O O#",
"#####..+#####+ ##+ X##",
"######o .o+### .X X###",
"########o        o####",
"##########+ooO..######",
"##############o ######",
"##############o ######",
"############### o#####",
"#####+oO####### o#####",
"####+    +#####Xo#####",
"####X    X#####oo#####",
"####      #####oo#####",
"####      #####.o#####",
"####     o####+ ######",
"####o   O#####.o######",
"#####X  X###O.X#######",
"######o     .o########",
"########@o+###########"
};
