/* XPM */
static char *magick[] = {
/* columns rows colors chars-per-pixel */
"6 16 7 1",
"  c #020202",
". c Gray17",
"X c #6f6f6f",
"o c #888888",
"O c Gray68",
"+ c #dadada",
"@ c None",
/* pixels */
"@@@@@@",
"@@+o+@",
"@+  .@",
"@X   O",
"@O   +",
"@@X o@",
"@@@@@@",
"@@@@@@",
"@@@@@@",
"@@@@@@",
"@@@@@@",
"@@X o@",
"@O   +",
"@X   O",
"@+  .@",
"@@+o+@"
};
