/* XPM */
static char *magick[] = {
/* columns rows colors chars-per-pixel */
"22 29 7 1",
"  c #0b0b0b",
". c #353535",
"X c #535353",
"o c Gray45",
"O c Gray53",
"+ c Gray72",
"@ c None",
/* pixels */
"@@@@@@@@@@@@@@@@@@@@@@",
"@@@@@@@@@@@O@@@@@@@@@@",
"@@@@@@@@@@@ @@@@@@@@@@",
"@@@@@@@@@@@ @@@@@@@@@@",
"@@@@@@@@@@@ @@@@@@@@@@",
"@@@@@@@@@@o X@@@@@@@@@",
"@@@@@@@@o X X o@@@@@@@",
"@@@@@@@X +@ @+ X@@@@@@",
"@@@@@@o  @@ @@  o@@@@@",
"@@@@@@  o@@ @@o  @@@@@",
"@@@@@+  O@@ @@o  +@@@@",
"@@@@@o  O@@ @@o  o@@@@",
"@@@@@   o@@.+@o   @@@@",
"@@@@@   o@@ @@o   @@@@",
"@+XoX   .oX Xo.   ooX+",
"@+XoX   .oo Xo.   ooX+",
"@@@@@   O@@ @@o   @@@@",
"@@@@@   o@@ @@o   @@@@",
"@@@@@o  o@@.@@o  o@@@@",
"@@@@@+  o@@ +@O  +@@@@",
"@@@@@@  o@@ @@o  @@@@@",
"@@@@@@o  @@ @@  O@@@@@",
"@@@@@@@X +@ @+ X@@@@@@",
"@@@@@@@@o X X o@@@@@@@",
"@@@@@@@@@@o X@@@@@@@@@",
"@@@@@@@@@@@ @@@@@@@@@@",
"@@@@@@@@@@@ @@@@@@@@@@",
"@@@@@@@@@@@ @@@@@@@@@@",
"@@@@@@@@@@@O@@@@@@@@@@"
};
