/* XPM */
static char *magick[] = {
/* columns rows colors chars-per-pixel */
"15 10 8 1",
"  c #040404",
". c #2c2c2c",
"X c Gray30",
"o c #767676",
"O c Gray56",
"+ c #afafaf",
"@ c #d5d5d5",
"# c None",
/* pixels */
"###############",
"#####@O########",
"#####. o#######",
"####X   +####++",
"###O    .@##@ +",
"##+      .OO O#",
"##.X##O     O##",
"#OX####O   .###",
"#######@. .@###",
"########@O@####"
};
