/* XPM */
static char *magick[] = {
/* columns rows colors chars-per-pixel */
"17 16 8 1",
"  c #040404",
". c Gray17",
"X c Gray35",
"o c #727272",
"O c Gray53",
"+ c Gray73",
"@ c #c8c8c8",
"# c None",
/* pixels */
"#################",
"#++############O#",
"#o.oooooooooooo #",
"#O              #",
"#O ............ #",
"#oo############.@",
"#oX@@@@@@@@@@@+ @",
"#O              #",
"#O              #",
"#oX@+@@@@@@@@@@ #",
"###############.@",
"###############.#",
"###############.+",
"###############Oo",
"###############oo",
"###############@+"
};
