/* XPM */
static char *magick[] = {
/* columns rows colors chars-per-pixel */
"16 13 7 1",
"  c #020202",
". c Gray18",
"X c #747474",
"o c Gray54",
"O c Gray71",
"+ c Gray81",
"@ c None",
/* pixels */
"@@@@@@@@@@@@@@@@",
"@@@@@@@+ooooooX+",
"@@@@@@@o      .@",
"@@@@@@+ .ooo  O@",
"@@@@@@. O@@O .@@",
"@@@@@o X@@@. +@@",
"@@@@@. +@@X X@@@",
"@@@@X X@@+ .@@@@",
"@@@+ .@@@X o@@@@",
"@@@. O@@+ .@@@@@",
"@@O  ooo. +@@@@@",
"@@.      o@@@@@@",
"@+Xoooooo+@@@@@@"
};
