/* XPM */
static char *magick[] = {
/* columns rows colors chars-per-pixel */
"11 24 8 1",
"  c #060606",
". c #313131",
"X c #4e4e4e",
"o c #747474",
"O c #8b8b8b",
"+ c #acacac",
"@ c Gray81",
"# c None",
/* pixels */
"###########",
"####@o+####",
"####.  O#+O",
"###@   X#O+",
"####.     @",
"####@oOo+X#",
"########OX#",
"###+o@##OO#",
"##+  .##.@#",
"##X   +#.@#",
"##@o  ..X##",
"#######OX##",
"#######.@##",
"##. @##.@##",
"#O  .#+X###",
"#o   OXX###",
"##.  . +###",
"######.@###",
"#####+.####",
"#####+.####",
"#####Xo####",
"#####.+####",
"####@ #####",
"####@+#####"
};
