/* XPM */
static char * tail_up_1_xpm[] = {
"4 6 2 1",
" 	c None",
".	c black",
"  . ",
"   .",
"   .",
"  . ",
"... ",
"..  "};
