/* XPM */
static char * tail_up_3_xpm[] = {
"4 13 2 1",
" 	c None",
".	c black",
"   .",
"   .",
"  . ",
"... ",
".. .",
"  ..",
"  . ",
"..  ",
".. .",
"   .",
"  . ",
"... ",
"..  "};
