/* XPM */
static char *magick[] = {
/* columns rows colors chars-per-pixel */
"4 10 4 1",
"  c #515151",
". c Gray45",
"X c #d2d2d2",
"o c None",
/* pixels */
"oooo",
"oooX",
"oo.X",
"oX o",
"o..o",
"o. o",
"o..o",
"oo o",
"oo.X",
"oooX"
};
