/* XPM */
static char *magick[] = {
/* columns rows colors chars-per-pixel */
"14 12 7 1",
"  c #090909",
". c Gray20",
"X c Gray29",
"o c #959595",
"O c Gray73",
"+ c Gray80",
"@ c None",
/* pixels */
"@@@@@@@@@@@@@@",
"@+@@@@@@@@@@@@",
"@o+@@@@@@@@@@@",
"@o+@@@@@@@@@@@",
"@o+@@@@@@@@@@@",
"@o+@@@@@@@@@@@",
"@o+@@@@@@@@@@@",
"@o++@@O@@@O@@@",
"@o  O+ X@X O@O",
"@o.  X. .X  .o",
"@+@O X@X ++ .@",
"@@@@O@@@+@@+@@"
};
