/* XPM */
static char *magick[] = {
/* columns rows colors chars-per-pixel */
"5 7 5 1",
"  c #5b5b5b",
". c Gray45",
"X c #8d8d8d",
"o c #b1b1b1",
"O c None",
/* pixels */
"OOOOO",
"OOXXO",
"O....",
"O.XX.",
"OX  X",
"OO  O",
"OOooO"
};
